<svg viewBox="0 0 24 24" xmlns="http://www.w3.org/2000/svg">
<path d="M12.8158 16.0964C12.5757 16.2398 12.2878 16.3355 11.9997 16.3355C11.7117 16.3355 11.4238 16.2398 11.1837 16.0962L0 8.20386V19.2055C0 19.4448 0.24007 19.6838 0.479934 19.6838H23.5201C23.7601 19.6838 24 19.4446 24 19.2055V8.20386L12.8158 16.0964Z" fill="white"/>
<path d="M11.7145 13.2734C11.8104 13.3213 11.9063 13.3692 12.0022 13.3692C12.0981 13.3692 12.194 13.3213 12.2899 13.2734L23.7957 5.13902C23.9396 4.99543 24.0355 4.80398 23.9875 4.61272C23.9396 4.42127 23.7478 4.27768 23.5082 4.27768H0.496635C0.304817 4.27768 0.113205 4.42127 0.017296 4.61272C-0.0306579 4.80416 0.0172959 5.04327 0.209114 5.13902L11.7145 13.2734Z" fill="white"/>
</svg>
