<svg viewBox="0 0 86 82" fill="none" xmlns="http://www.w3.org/2000/svg">
<path d="M78.886 63.7813H78.7936C76.6575 63.7813 74.7522 64.7873 73.5226 66.3521L73.2433 66.7075L72.8616 66.4654L46.7528 49.9024L46.3542 49.6495L46.5837 49.237C47.4981 47.5942 48.0124 45.7152 48.0124 43.7454C48.0124 40.2972 46.4611 37.2053 44.019 35.1261L43.6606 34.821L43.9435 34.4449L56.2521 18.0787L56.5325 17.7058L56.9239 17.9599C58.4495 18.9502 60.207 19.4718 62.05 19.4718C67.2642 19.4718 71.5068 15.2292 71.5068 10.0144C71.5068 4.79951 67.2641 0.556274 62.05 0.556274C56.8414 0.556274 52.6026 4.79907 52.6026 10.0144C52.6026 12.7437 53.8085 15.365 55.8548 17.1515L56.205 17.4572L55.9255 17.8287L43.6164 34.1949L43.3328 34.572L42.9399 34.3107C41.1474 33.1185 38.9986 32.4225 36.6888 32.4225C32.4877 32.4225 28.814 34.7253 26.8597 38.1375L26.6261 38.5453L26.2046 38.3375L13.8387 32.2398L13.4313 32.0389L13.5923 31.6142C13.8712 30.8782 14.0248 30.0814 14.0248 29.2481C14.0248 25.5527 11.0181 22.5455 7.32286 22.5455C3.62828 22.5455 0.620956 25.5528 0.620956 29.2481C0.620956 32.9433 3.6276 35.95 7.32286 35.95C9.71607 35.95 11.8211 34.6873 13.0079 32.7904L13.2476 32.4073L13.6529 32.6072L26.0169 38.7042L26.4402 38.9129L26.2563 39.3474C25.684 40.7001 25.3672 42.1863 25.3672 43.7457C25.3672 46.4865 26.3459 49.0016 27.973 50.9636L28.2709 51.3228L27.933 51.6447L17.0721 61.9935L16.7395 62.3103L16.3957 62.0058C15.1377 60.8916 13.5417 60.2844 11.8271 60.2844C7.99206 60.2844 4.87075 63.4057 4.87075 67.2408C4.87075 71.0759 7.99145 74.1972 11.8271 74.1972C15.6559 74.1972 18.7729 71.0766 18.7729 67.2408C18.7729 65.6652 18.2536 64.17 17.3046 62.9659L17.0229 62.6084L17.3524 62.2944L28.2088 51.95L28.5533 51.6218L28.8982 51.9496C30.9306 53.8813 33.6728 55.069 36.6893 55.069C37.4547 55.069 38.2249 54.9894 38.9899 54.8328L39.4498 54.7387L39.5727 55.1917L43.9479 71.3167L44.0628 71.74L43.6581 71.909C41.8671 72.657 40.607 74.4257 40.607 76.4818C40.607 79.2127 42.8295 81.4355 45.5595 81.4355C48.2908 81.4355 50.5132 79.2125 50.5132 76.4818C50.5132 73.7512 48.291 71.5293 45.5595 71.5293C45.3359 71.5293 45.1144 71.5457 44.8938 71.5752L44.4596 71.6333L44.3449 71.2106L39.9704 55.0863L39.847 54.6317L40.2934 54.4815C42.5751 53.7137 44.4999 52.2544 45.8575 50.3784L46.1332 49.9974L46.5304 50.2494L72.6392 66.8123L73.023 67.0558L72.8171 67.461C72.3552 68.3702 72.0934 69.3965 72.0934 70.4845C72.0934 74.1799 75.1001 77.1877 78.7953 77.1877C82.4898 77.1877 85.4971 74.1806 85.4972 70.4847L78.886 63.7813ZM78.886 63.7813C82.5385 63.8304 85.4959 66.8183 85.4972 70.4845L78.886 63.7813Z" stroke="#00AED5" stroke-opacity="0.15"/>
</svg>
