<svg width="35" height="36" viewBox="0 0 35 36" fill="none" xmlns="http://www.w3.org/2000/svg">
<path d="M19.1527 19.6487C20.5043 18.3003 21.6009 16.7187 22.3897 14.9801L19.02 11.6104C18.4048 10.9952 18.063 10.1748 18.063 9.30226C18.0629 8.8741 18.1474 8.45013 18.3116 8.05472C18.4758 7.65931 18.7166 7.30024 19.02 6.99815L23.6282 2.38992C24.2435 1.77469 25.0638 1.43289 25.9364 1.43289C26.3645 1.43279 26.7885 1.51728 27.1839 1.68152C27.5793 1.84576 27.9384 2.0865 28.2405 2.38992L32.523 6.66842C33.7213 7.87476 34.2722 9.58374 33.9987 11.2445C33.094 16.6811 30.2149 22.0533 25.8801 26.3841C21.5413 30.7189 16.165 33.602 10.7445 34.4947C10.467 34.543 10.1856 34.5671 9.89201 34.5671C8.50069 34.5671 7.14557 34.0081 6.16441 33.023L1.88994 28.7485C1.27471 28.1333 0.932909 27.3129 0.932909 26.4404C0.932409 26.0115 1.01671 25.5868 1.18095 25.1907C1.3452 24.7946 1.58615 24.4349 1.88994 24.1322L6.50219 19.528C7.11742 18.9128 7.93773 18.571 8.81032 18.571C9.23849 18.5709 9.66245 18.6554 10.0579 18.8196M19.1527 19.6487C17.8045 21.0035 16.223 22.1042 14.4842 22.8977L11.1144 19.528C10.8123 19.2246 10.4533 18.9839 10.0579 18.8196M19.1527 19.6487L19.5058 20.0026C19.506 20.0024 19.5063 20.0022 19.5065 20.002M19.1527 19.6487L19.5071 20.0013C19.5069 20.0015 19.5067 20.0018 19.5065 20.002M10.0579 18.8196L9.86607 19.2814C9.53149 19.1424 9.17274 19.0709 8.81044 19.071H8.81032C8.07093 19.071 7.37762 19.3597 6.85574 19.8816L6.85543 19.8819L2.24319 24.4861L2.24283 24.4864C1.98573 24.7426 1.78182 25.047 1.64282 25.3822C1.50382 25.7175 1.43249 26.0769 1.43291 26.4398L1.43291 26.4404C1.43291 27.1798 1.72161 27.8731 2.24349 28.3949L6.51797 32.6694L6.51869 32.6701C7.40531 33.5604 8.63264 34.0671 9.89201 34.0671C10.1576 34.0671 10.4104 34.0453 10.6588 34.0021L10.6632 34.0013C15.9686 33.1276 21.2526 30.3004 25.5267 26.0303C29.796 21.765 32.6195 16.4852 33.5054 11.1631C33.7523 9.66297 33.2549 8.11519 32.169 7.0215C32.1687 7.02126 32.1685 7.02102 32.1682 7.02078L27.8871 2.74364L27.8861 2.7427C27.6305 2.48596 27.3267 2.28225 26.9921 2.14327C26.6575 2.0043 26.2988 1.93281 25.9365 1.93289L25.9364 1.93289C25.197 1.93289 24.5037 2.22159 23.9818 2.74348L19.3736 7.3517L19.3728 7.35248C19.116 7.6081 18.9123 7.91193 18.7733 8.24651C18.6344 8.5811 18.5629 8.93984 18.563 9.30214V9.30226C18.563 10.0417 18.8517 10.735 19.3736 11.2568L22.7433 14.6266L22.9881 14.8714L22.845 15.1867C22.0315 16.9799 20.9004 18.6112 19.5065 20.002M10.0579 18.8196L9.86607 19.2814C10.2007 19.4203 10.5045 19.6241 10.7601 19.8808L10.7609 19.8816L14.1306 23.2513L14.376 23.4967L14.6917 23.3526C16.485 22.5342 18.116 21.3992 19.5065 20.002" stroke="white"/>
</svg>
