<svg viewBox="0 0 24 24" xmlns="http://www.w3.org/2000/svg">
<path d="M23.1429 4.28557H18.8571V2.78557C18.8571 2.66772 18.7607 2.57129 18.6429 2.57129H17.1429C17.025 2.57129 16.9286 2.66772 16.9286 2.78557V4.28557H12.9643V2.78557C12.9643 2.66772 12.8679 2.57129 12.75 2.57129H11.25C11.1321 2.57129 11.0357 2.66772 11.0357 2.78557V4.28557H7.07143V2.78557C7.07143 2.66772 6.975 2.57129 6.85714 2.57129H5.35714C5.23929 2.57129 5.14286 2.66772 5.14286 2.78557V4.28557H0.857143C0.383036 4.28557 0 4.66861 0 5.14272V20.5713C0 21.0454 0.383036 21.4284 0.857143 21.4284H23.1429C23.617 21.4284 24 21.0454 24 20.5713V5.14272C24 4.66861 23.617 4.28557 23.1429 4.28557ZM9.64286 16.7141C9.64286 16.832 9.54643 16.9284 9.42857 16.9284H4.5C4.38214 16.9284 4.28571 16.832 4.28571 16.7141V15.4284C4.28571 15.3106 4.38214 15.2141 4.5 15.2141H9.42857C9.54643 15.2141 9.64286 15.3106 9.64286 15.4284V16.7141ZM9.64286 13.0713C9.64286 13.1891 9.54643 13.2856 9.42857 13.2856H4.5C4.38214 13.2856 4.28571 13.1891 4.28571 13.0713V11.7856C4.28571 11.6677 4.38214 11.5713 4.5 11.5713H9.42857C9.54643 11.5713 9.64286 11.6677 9.64286 11.7856V13.0713ZM19.6741 10.6258L15.2545 16.7516C15.215 16.8064 15.1631 16.851 15.103 16.8818C15.0429 16.9125 14.9764 16.9286 14.9089 16.9286C14.8414 16.9286 14.7749 16.9125 14.7148 16.8818C14.6548 16.851 14.6028 16.8064 14.5634 16.7516L11.5045 12.5141C11.4027 12.3722 11.5045 12.174 11.6786 12.174H13.1491C13.2857 12.174 13.4143 12.2409 13.4946 12.3508L14.9089 14.3088L17.6866 10.4597C17.767 10.3472 17.8955 10.2829 18.0321 10.2829H19.5C19.6741 10.2856 19.7759 10.4838 19.6741 10.6258Z"/>
</svg>
