<svg width="107" height="50" viewBox="0 0 107 50" fill="none" xmlns="http://www.w3.org/2000/svg">
<path d="M0.619995 19.08L7.6 10.6H0.779995V9.57999H9.14V10.5L2.2 18.98H9.12V20H0.619995V19.08ZM11.8438 15.7V9.57999H13.2038V15.46C13.2038 16.6467 13.4038 17.5333 13.8038 18.12C14.2171 18.7067 14.8238 19 15.6238 19C16.1571 19 16.6704 18.8867 17.1638 18.66C17.6704 18.42 18.1171 18.0867 18.5038 17.66C18.8904 17.22 19.1838 16.7133 19.3838 16.14V9.57999H20.7438V18.36C20.7438 18.5467 20.7838 18.6867 20.8638 18.78C20.9438 18.86 21.0638 18.9067 21.2238 18.92V20C21.0638 20.0133 20.9371 20.02 20.8438 20.02C20.7504 20.0333 20.6638 20.04 20.5838 20.04C20.3171 20.0133 20.0838 19.9067 19.8838 19.72C19.6971 19.5333 19.5971 19.3067 19.5838 19.04L19.5438 17.64C19.0904 18.44 18.4704 19.0667 17.6838 19.52C16.9104 19.9733 16.0704 20.2 15.1638 20.2C14.0704 20.2 13.2438 19.82 12.6838 19.06C12.1238 18.3 11.8438 17.18 11.8438 15.7ZM29.5188 20.2C28.7054 20.2 27.9521 19.9933 27.2588 19.58C26.5654 19.1533 26.0254 18.62 25.6388 17.98V20H24.4188V5.39999H25.7788V11.76C26.2454 11.0533 26.8054 10.4867 27.4588 10.06C28.1121 9.61999 28.8721 9.39999 29.7388 9.39999C30.4721 9.39999 31.1254 9.55332 31.6988 9.85999C32.2854 10.1667 32.7854 10.58 33.1988 11.1C33.6121 11.6067 33.9254 12.1867 34.1388 12.84C34.3521 13.48 34.4588 14.14 34.4588 14.82C34.4588 15.5533 34.3321 16.24 34.0788 16.88C33.8388 17.52 33.4921 18.0933 33.0388 18.6C32.5854 19.0933 32.0588 19.4867 31.4588 19.78C30.8721 20.06 30.2254 20.2 29.5188 20.2ZM29.1988 19C29.7588 19 30.2788 18.8867 30.7588 18.66C31.2388 18.4333 31.6521 18.12 31.9988 17.72C32.3454 17.32 32.6121 16.8733 32.7988 16.38C32.9854 15.8733 33.0788 15.3533 33.0788 14.82C33.0788 14.0867 32.9188 13.4 32.5988 12.76C32.2921 12.1067 31.8588 11.5867 31.2988 11.2C30.7521 10.8 30.1054 10.6 29.3588 10.6C28.8254 10.6 28.3254 10.72 27.8588 10.96C27.4054 11.2 26.9988 11.52 26.6388 11.92C26.2921 12.3067 26.0054 12.7333 25.7788 13.2V16.44C25.8321 16.8 25.9721 17.14 26.1988 17.46C26.4254 17.7667 26.7054 18.0333 27.0388 18.26C27.3854 18.4867 27.7454 18.6667 28.1188 18.8C28.4921 18.9333 28.8521 19 29.1988 19ZM51.8202 20H50.4602V14.18C50.4602 12.9533 50.2802 12.06 49.9202 11.5C49.5602 10.9267 48.9935 10.64 48.2202 10.64C47.6868 10.64 47.1602 10.7733 46.6402 11.04C46.1202 11.2933 45.6602 11.6467 45.2602 12.1C44.8735 12.54 44.5935 13.0467 44.4202 13.62V20H43.0602V9.57999H44.3002V11.94C44.5802 11.4333 44.9468 10.9933 45.4002 10.62C45.8535 10.2333 46.3668 9.93332 46.9402 9.71999C47.5135 9.50666 48.1068 9.39999 48.7202 9.39999C49.2935 9.39999 49.7802 9.50666 50.1802 9.71999C50.5802 9.93332 50.9002 10.24 51.1402 10.64C51.3802 11.0267 51.5535 11.5 51.6602 12.06C51.7668 12.6067 51.8202 13.22 51.8202 13.9V20ZM54.4803 17C54.4803 16.3467 54.667 15.7867 55.0403 15.32C55.4136 14.84 55.927 14.4733 56.5803 14.22C57.247 13.9533 58.0136 13.82 58.8803 13.82C59.387 13.82 59.9136 13.86 60.4603 13.94C61.007 14.02 61.4936 14.14 61.9203 14.3V13.42C61.9203 12.54 61.6603 11.84 61.1403 11.32C60.6203 10.8 59.9003 10.54 58.9803 10.54C58.4203 10.54 57.867 10.6467 57.3203 10.86C56.787 11.06 56.227 11.36 55.6403 11.76L55.1203 10.8C55.8003 10.3333 56.467 9.98666 57.1203 9.75999C57.7736 9.51999 58.4403 9.39999 59.1203 9.39999C60.4003 9.39999 61.4136 9.76666 62.1603 10.5C62.907 11.2333 63.2803 12.2467 63.2803 13.54V18.36C63.2803 18.5467 63.3203 18.6867 63.4003 18.78C63.4803 18.86 63.607 18.9067 63.7803 18.92V20C63.6336 20.0133 63.507 20.0267 63.4003 20.04C63.2936 20.0533 63.2136 20.0533 63.1603 20.04C62.827 20.0267 62.5736 19.92 62.4003 19.72C62.227 19.52 62.1336 19.3067 62.1203 19.08L62.1003 18.32C61.6336 18.92 61.027 19.3867 60.2803 19.72C59.5336 20.04 58.7736 20.2 58.0003 20.2C57.3336 20.2 56.727 20.06 56.1803 19.78C55.647 19.4867 55.227 19.1 54.9203 18.62C54.627 18.1267 54.4803 17.5867 54.4803 17ZM61.4603 17.8C61.607 17.6133 61.7203 17.4333 61.8003 17.26C61.8803 17.0867 61.9203 16.9333 61.9203 16.8V15.28C61.467 15.1067 60.9936 14.9733 60.5003 14.88C60.0203 14.7867 59.5336 14.74 59.0403 14.74C58.067 14.74 57.2803 14.9333 56.6803 15.32C56.0803 15.7067 55.7803 16.2333 55.7803 16.9C55.7803 17.2867 55.8803 17.6533 56.0803 18C56.2803 18.3333 56.5736 18.6133 56.9603 18.84C57.347 19.0533 57.8003 19.16 58.3203 19.16C58.9736 19.16 59.5803 19.0333 60.1403 18.78C60.7136 18.5267 61.1536 18.2 61.4603 17.8ZM71.6364 19.08L78.6164 10.6H71.7964V9.57999H80.1564V10.5L73.2164 18.98H80.1364V20H71.6364V19.08ZM82.8602 15.7V9.57999H84.2202V15.46C84.2202 16.6467 84.4202 17.5333 84.8202 18.12C85.2335 18.7067 85.8402 19 86.6402 19C87.1735 19 87.6868 18.8867 88.1802 18.66C88.6868 18.42 89.1335 18.0867 89.5202 17.66C89.9068 17.22 90.2002 16.7133 90.4002 16.14V9.57999H91.7602V18.36C91.7602 18.5467 91.8002 18.6867 91.8802 18.78C91.9602 18.86 92.0802 18.9067 92.2402 18.92V20C92.0802 20.0133 91.9535 20.02 91.8602 20.02C91.7668 20.0333 91.6802 20.04 91.6002 20.04C91.3335 20.0133 91.1002 19.9067 90.9002 19.72C90.7135 19.5333 90.6135 19.3067 90.6002 19.04L90.5602 17.64C90.1068 18.44 89.4868 19.0667 88.7002 19.52C87.9268 19.9733 87.0868 20.2 86.1802 20.2C85.0868 20.2 84.2602 19.82 83.7002 19.06C83.1402 18.3 82.8602 17.18 82.8602 15.7ZM100.535 20.2C99.7218 20.2 98.9685 19.9933 98.2752 19.58C97.5818 19.1533 97.0418 18.62 96.6552 17.98V20H95.4352V5.39999H96.7952V11.76C97.2618 11.0533 97.8218 10.4867 98.4752 10.06C99.1285 9.61999 99.8885 9.39999 100.755 9.39999C101.488 9.39999 102.142 9.55332 102.715 9.85999C103.302 10.1667 103.802 10.58 104.215 11.1C104.628 11.6067 104.942 12.1867 105.155 12.84C105.368 13.48 105.475 14.14 105.475 14.82C105.475 15.5533 105.348 16.24 105.095 16.88C104.855 17.52 104.508 18.0933 104.055 18.6C103.602 19.0933 103.075 19.4867 102.475 19.78C101.888 20.06 101.242 20.2 100.535 20.2ZM100.215 19C100.775 19 101.295 18.8867 101.775 18.66C102.255 18.4333 102.668 18.12 103.015 17.72C103.362 17.32 103.628 16.8733 103.815 16.38C104.002 15.8733 104.095 15.3533 104.095 14.82C104.095 14.0867 103.935 13.4 103.615 12.76C103.308 12.1067 102.875 11.5867 102.315 11.2C101.768 10.8 101.122 10.6 100.375 10.6C99.8418 10.6 99.3418 10.72 98.8752 10.96C98.4218 11.2 98.0152 11.52 97.6552 11.92C97.3085 12.3067 97.0218 12.7333 96.7952 13.2V16.44C96.8485 16.8 96.9885 17.14 97.2152 17.46C97.4418 17.7667 97.7218 18.0333 98.0552 18.26C98.4018 18.4867 98.7618 18.6667 99.1352 18.8C99.5085 18.9333 99.8685 19 100.215 19Z" fill="white"/>
<path d="M12.5905 42H12.1145V37.94C12.1145 36.96 11.9605 36.2367 11.6525 35.77C11.3539 35.294 10.8919 35.056 10.2665 35.056C9.61318 35.056 9.04384 35.28 8.55851 35.728C8.07318 36.176 7.73251 36.7547 7.53651 37.464V42H7.06051V37.94C7.06051 36.9507 6.91118 36.2227 6.61251 35.756C6.32318 35.2893 5.86118 35.056 5.22651 35.056C4.59184 35.056 4.02718 35.2753 3.53251 35.714C3.04718 36.1527 2.70184 36.7313 2.49651 37.45V42H2.02051V34.72H2.48251V36.54C2.79051 35.924 3.18718 35.448 3.67251 35.112C4.16718 34.776 4.70384 34.608 5.28251 34.608C5.88918 34.608 6.38851 34.7947 6.78051 35.168C7.17251 35.5413 7.40584 36.036 7.48051 36.652C7.83518 35.9707 8.25051 35.462 8.72651 35.126C9.20251 34.7807 9.74851 34.608 10.3645 34.608C10.7565 34.608 11.0879 34.678 11.3585 34.818C11.6385 34.958 11.8672 35.168 12.0445 35.448C12.2312 35.7187 12.3665 36.0593 12.4505 36.47C12.5439 36.8807 12.5905 37.352 12.5905 37.884V42ZM26.9004 42.14C26.415 42.14 25.953 42.042 25.5144 41.846C25.085 41.6407 24.707 41.3653 24.3804 41.02C24.063 40.6653 23.811 40.2593 23.6244 39.802C23.447 39.3353 23.3584 38.8407 23.3584 38.318C23.3584 37.6367 23.5124 37.016 23.8204 36.456C24.1284 35.896 24.5437 35.448 25.0664 35.112C25.5984 34.776 26.191 34.608 26.8444 34.608C27.5164 34.608 28.1137 34.7807 28.6364 35.126C29.1684 35.462 29.593 35.9147 29.9104 36.484C30.2277 37.044 30.3864 37.6693 30.3864 38.36C30.3864 38.3973 30.3864 38.4347 30.3864 38.472C30.3864 38.5093 30.3817 38.5467 30.3724 38.584H23.8484C23.895 39.172 24.0584 39.704 24.3384 40.18C24.6277 40.656 24.9964 41.034 25.4444 41.314C25.9017 41.594 26.3964 41.734 26.9284 41.734C27.4604 41.734 27.9597 41.5987 28.4264 41.328C28.893 41.048 29.2244 40.6933 29.4204 40.264L29.8544 40.376C29.7144 40.712 29.495 41.0153 29.1964 41.286C28.8977 41.5567 28.5477 41.7667 28.1464 41.916C27.7544 42.0653 27.339 42.14 26.9004 42.14ZM23.8344 38.178H29.9104C29.873 37.562 29.7144 37.0207 29.4344 36.554C29.1637 36.078 28.8044 35.7047 28.3564 35.434C27.9084 35.1633 27.409 35.028 26.8584 35.028C26.317 35.028 25.8224 35.1633 25.3744 35.434C24.9357 35.7047 24.5764 36.078 24.2964 36.554C24.0257 37.03 23.8717 37.5713 23.8344 38.178ZM40.5658 38.388C40.5658 37.7067 40.7105 37.0813 40.9998 36.512C41.2985 35.9427 41.6998 35.4853 42.2038 35.14C42.7078 34.7853 43.2818 34.608 43.9258 34.608C44.5791 34.608 45.1578 34.7853 45.6618 35.14C46.1658 35.4853 46.5578 35.896 46.8378 36.372V31.78H47.3138V41.272C47.3138 41.3653 47.3371 41.44 47.3838 41.496C47.4305 41.552 47.4911 41.58 47.5658 41.58V42C47.4538 42.0093 47.3698 42.0047 47.3138 41.986C47.1831 41.9487 47.0758 41.874 46.9918 41.762C46.9078 41.65 46.8658 41.5287 46.8658 41.398V40.516C46.5671 41.0013 46.1611 41.3933 45.6478 41.692C45.1345 41.9907 44.6071 42.14 44.0658 42.14C43.5618 42.14 43.0951 42.0373 42.6658 41.832C42.2365 41.6173 41.8631 41.3327 41.5458 40.978C41.2378 40.614 40.9951 40.208 40.8178 39.76C40.6498 39.312 40.5658 38.8547 40.5658 38.388ZM46.8378 39.592V37.086C46.7071 36.7033 46.4878 36.3627 46.1798 36.064C45.8718 35.756 45.5265 35.5133 45.1438 35.336C44.7611 35.1493 44.3785 35.056 43.9958 35.056C43.5478 35.056 43.1418 35.1493 42.7778 35.336C42.4231 35.5227 42.1151 35.7747 41.8538 36.092C41.5925 36.4093 41.3918 36.7687 41.2518 37.17C41.1211 37.562 41.0558 37.968 41.0558 38.388C41.0558 38.8267 41.1305 39.2467 41.2798 39.648C41.4385 40.04 41.6578 40.3947 41.9378 40.712C42.2271 41.02 42.5538 41.2627 42.9178 41.44C43.2911 41.608 43.6925 41.692 44.1218 41.692C44.3925 41.692 44.6771 41.6407 44.9758 41.538C45.2838 41.426 45.5731 41.272 45.8438 41.076C46.1238 40.88 46.3525 40.656 46.5298 40.404C46.7071 40.1427 46.8098 39.872 46.8378 39.592ZM58.7151 42V34.72H59.1911V42H58.7151ZM58.7151 32.956V31.78H59.1911V32.956H58.7151ZM73.6148 42.14C73.1201 42.14 72.6581 42.042 72.2288 41.846C71.7994 41.6407 71.4214 41.3653 71.0948 41.02C70.7681 40.6653 70.5114 40.2593 70.3248 39.802C70.1474 39.3447 70.0588 38.8547 70.0588 38.332C70.0588 37.632 70.2128 37.002 70.5208 36.442C70.8288 35.882 71.2488 35.4387 71.7808 35.112C72.3221 34.776 72.9288 34.608 73.6008 34.608C74.2354 34.608 74.8001 34.7573 75.2948 35.056C75.7894 35.3453 76.1581 35.7467 76.4008 36.26L75.9388 36.428C75.7148 35.9987 75.3881 35.6627 74.9588 35.42C74.5388 35.1773 74.0721 35.056 73.5588 35.056C72.9988 35.056 72.4901 35.2007 72.0328 35.49C71.5754 35.7793 71.2114 36.1713 70.9408 36.666C70.6701 37.1607 70.5348 37.716 70.5348 38.332C70.5348 38.9387 70.6701 39.4987 70.9408 40.012C71.2208 40.5253 71.5894 40.936 72.0468 41.244C72.5134 41.5427 73.0221 41.692 73.5728 41.692C73.9368 41.692 74.2914 41.6267 74.6368 41.496C74.9821 41.356 75.2808 41.1787 75.5328 40.964C75.7848 40.74 75.9481 40.502 76.0228 40.25L76.4988 40.39C76.3868 40.726 76.1814 41.0293 75.8828 41.3C75.5934 41.5613 75.2528 41.7667 74.8608 41.916C74.4688 42.0653 74.0534 42.14 73.6148 42.14ZM86.635 39.914C86.635 39.4847 86.7657 39.116 87.027 38.808C87.2883 38.4907 87.643 38.2433 88.091 38.066C88.539 37.8793 89.0617 37.786 89.659 37.786C90.051 37.786 90.457 37.8233 90.877 37.898C91.297 37.9633 91.675 38.0567 92.011 38.178V37.408C92.011 36.6987 91.801 36.1293 91.381 35.7C90.9703 35.2613 90.415 35.042 89.715 35.042C89.3603 35.042 88.9823 35.1167 88.581 35.266C88.189 35.4153 87.7877 35.6347 87.377 35.924L87.139 35.574C87.615 35.2473 88.0677 35.0047 88.497 34.846C88.9263 34.6873 89.3417 34.608 89.743 34.608C90.583 34.608 91.2503 34.8647 91.745 35.378C92.2397 35.882 92.487 36.568 92.487 37.436V41.272C92.487 41.3747 92.5057 41.454 92.543 41.51C92.5897 41.5567 92.655 41.58 92.739 41.58V42C92.6737 42 92.6177 42 92.571 42C92.5337 42 92.501 41.9953 92.473 41.986C92.3423 41.958 92.2397 41.888 92.165 41.776C92.0903 41.664 92.0483 41.5427 92.039 41.412V40.782C91.703 41.2113 91.269 41.5473 90.737 41.79C90.205 42.0233 89.6357 42.14 89.029 42.14C88.581 42.14 88.175 42.042 87.811 41.846C87.447 41.65 87.1577 41.384 86.943 41.048C86.7377 40.7027 86.635 40.3247 86.635 39.914ZM91.759 40.544C91.843 40.432 91.9037 40.3247 91.941 40.222C91.9877 40.11 92.011 40.012 92.011 39.928V38.598C91.647 38.458 91.269 38.3553 90.877 38.29C90.4943 38.2153 90.0977 38.178 89.687 38.178C88.9123 38.178 88.287 38.3367 87.811 38.654C87.335 38.962 87.097 39.3727 87.097 39.886C87.097 40.222 87.181 40.53 87.349 40.81C87.5263 41.09 87.7643 41.314 88.063 41.482C88.371 41.65 88.7117 41.734 89.085 41.734C89.6637 41.734 90.191 41.6267 90.667 41.412C91.1523 41.188 91.5163 40.8987 91.759 40.544ZM103.845 31.78H104.335V40.754C104.335 41.0527 104.409 41.2767 104.559 41.426C104.717 41.566 104.923 41.636 105.175 41.636C105.296 41.636 105.431 41.622 105.581 41.594C105.739 41.566 105.879 41.5333 106.001 41.496L106.113 41.888C105.973 41.9347 105.795 41.9767 105.581 42.014C105.375 42.0513 105.198 42.07 105.049 42.07C104.694 42.07 104.405 41.9627 104.181 41.748C103.957 41.524 103.845 41.2253 103.845 40.852V31.78Z" fill="white"/>
</svg>
