<?xml version="1.0" encoding="utf-8"?><svg viewBox="0 0 708 708" xmlns="http://www.w3.org/2000/svg" xmlns:xlink="http://www.w3.org/1999/xlink"><style>:root>svg{display:none}:root>svg:target{display:block}</style><svg viewBox="0 0 30 30" id="arrow" xmlns="http://www.w3.org/2000/svg"><path d="M7.538 24.44a.5.5 0 01.094-.58l9.152-9.1a.5.5 0 000-.708l-9.152-9.1a.5.5 0 01-.094-.58l1.48-2.943a.5.5 0 01.8-.13l12.825 12.753a.5.5 0 010 .709L9.817 27.514a.5.5 0 01-.799-.13l-1.48-2.944z"/></svg><svg viewBox="0 0 10 10" id="arrow-down" xmlns="http://www.w3.org/2000/svg"><path d="M1.024 2.445a.5.5 0 01.567.091l2.748 2.672a.5.5 0 00.697 0l2.748-2.672a.5.5 0 01.567-.09l.383.185a.5.5 0 01.13.808L5.036 7.161a.5.5 0 01-.697 0L.511 3.44a.5.5 0 01.13-.808l.383-.186z"/></svg><svg viewBox="0 0 24 24" id="chats" xmlns="http://www.w3.org/2000/svg"><path d="M12.816 16.096c-.24.144-.528.24-.816.24-.288 0-.576-.096-.816-.24L0 8.204v11.002c0 .239.24.478.48.478h23.04c.24 0 .48-.24.48-.479v-11l-11.184 7.892z" fill="#fff"/><path d="M11.714 13.273c.096.048.192.096.288.096.096 0 .192-.048.288-.096L23.796 5.14c.144-.144.24-.335.192-.526-.048-.192-.24-.335-.48-.335H.497c-.192 0-.384.143-.48.335-.048.191 0 .43.192.526l11.505 8.134z" fill="#fff"/></svg><svg viewBox="0 0 24 24" id="check-mark" xmlns="http://www.w3.org/2000/svg"><path d="M0 12.116l2.053-1.897c2.401 1.162 3.924 2.045 6.622 3.969 5.073-5.757 8.426-8.678 14.657-12.555L24 3.169c-5.139 4.484-8.902 9.479-14.321 19.198C6.336 18.431 4.105 15.921 0 12.116z"/></svg><svg viewBox="0 0 86 82" fill="none" id="chemical" xmlns="http://www.w3.org/2000/svg"><path d="M78.886 63.781h-.092a6.692 6.692 0 00-5.271 2.571l-.28.355-.381-.242-26.11-16.563-.398-.252.23-.413a11.276 11.276 0 001.428-5.492c0-3.448-1.55-6.54-3.993-8.619l-.358-.305.282-.376 12.31-16.366.28-.373.39.254a9.353 9.353 0 005.127 1.512c5.214 0 9.457-4.243 9.457-9.458 0-5.214-4.243-9.458-9.457-9.458-5.209 0-9.447 4.243-9.447 9.458a9.522 9.522 0 003.252 7.137l.35.306-.28.372-12.309 16.366-.283.377-.393-.261a11.25 11.25 0 00-6.251-1.889c-4.201 0-7.875 2.303-9.83 5.716l-.233.407-.421-.208-12.366-6.097-.408-.201.161-.425a6.661 6.661 0 00.433-2.366 6.71 6.71 0 00-6.702-6.703A6.71 6.71 0 00.62 29.248a6.71 6.71 0 006.702 6.702 6.703 6.703 0 005.685-3.16l.24-.383.405.2 12.364 6.097.423.209-.184.434a11.261 11.261 0 00-.889 4.399c0 2.74.979 5.256 2.606 7.218l.298.359-.338.322-10.86 10.348-.334.317-.343-.304a6.826 6.826 0 00-4.569-1.722c-3.835 0-6.956 3.122-6.956 6.957a6.965 6.965 0 006.956 6.956c3.829 0 6.946-3.12 6.946-6.956 0-1.576-.52-3.071-1.468-4.275l-.282-.358.33-.314L28.208 51.95l.344-.328.345.328a11.275 11.275 0 0010.092 2.883l.46-.094.123.453 4.375 16.125.115.423-.405.169a4.96 4.96 0 00-3.051 4.573 4.96 4.96 0 004.953 4.954 4.96 4.96 0 004.953-4.954 4.959 4.959 0 00-5.62-4.907l-.433.058-.115-.422-4.375-16.125-.123-.454.446-.15a11.33 11.33 0 005.565-4.104l.275-.38.397.251 26.11 16.563.383.244-.206.405a6.654 6.654 0 00-.724 3.023c0 3.696 3.007 6.704 6.702 6.704a6.71 6.71 0 006.702-6.703l-6.611-6.704zm0 0a6.712 6.712 0 016.611 6.703l-6.611-6.703z" stroke="#00AED5" stroke-opacity=".15"/></svg><svg fill="none" viewBox="0 0 25 25" id="close" xmlns="http://www.w3.org/2000/svg"><path d="M22.205.347L12.5 10.052 2.795.347.347 2.795l9.705 9.705-9.705 9.705 2.448 2.448 9.705-9.705 9.705 9.705 2.448-2.448-9.705-9.705 9.705-9.705L22.205.347z" fill="#fff"/></svg><svg fill="none" viewBox="0 0 27 27" id="cursor" xmlns="http://www.w3.org/2000/svg"><path d="M20.658 14.006c-.83-.1-1.58.524-1.58 1.322v-.674c0-.673-.492-1.271-1.191-1.371-.83-.1-1.58.524-1.58 1.322v-.674c0-.673-.492-1.271-1.191-1.371-.829-.1-1.58.523-1.58 1.321V8.196c0-.723-.621-1.322-1.372-1.322-.751 0-1.373.599-1.373 1.322v10.249c0 .15-.207.2-.285.075-.517-.848-1.113-2.02-1.139-2.02a1.374 1.374 0 00-1.813-.599c-.673.324-.958 1.097-.621 1.746.052.075 1.243 2.394 2.356 3.94 1.425 1.945 2.668 2.892 3.29 3.291.62.424 1.242.649 1.656.649h3.497c.621 0 1.19-.3 1.527-.773l.648-.898c1.243-1.72 1.89-3.84 1.89-6.01v-2.469a1.288 1.288 0 00-1.14-1.37zm-8.494-8.902c.31 0 .544-.224.544-.524V2.386c0-.3-.233-.524-.544-.524-.31 0-.544.225-.544.524v2.195c0 .274.259.523.544.523zm-3.03.897a.583.583 0 00.777 0 .528.528 0 000-.748L8.28 3.707a.58.58 0 00-.777 0 .528.528 0 000 .748l1.631 1.546zm-.181 2.195c0-.3-.233-.524-.544-.524H6.13c-.31 0-.544.225-.544.524 0 .3.233.524.544.524h2.28c.31 0 .544-.225.544-.524zm6.447 0c0 .3.234.524.545.524h2.279c.31 0 .543-.225.543-.524 0-.3-.232-.524-.543-.524h-2.28c-.31 0-.543.25-.543.524zm-.569-2.044c.13 0 .285-.05.389-.15l1.605-1.546a.528.528 0 000-.748.579.579 0 00-.777 0l-1.605 1.546a.528.528 0 000 .748c.13.1.259.15.388.15z" fill="#fff"/></svg><svg viewBox="0 0 24 24" id="email" xmlns="http://www.w3.org/2000/svg"><path d="M19 4H5a3 3 0 00-3 3v10a3 3 0 003 3h14a3 3 0 003-3V7a3 3 0 00-3-3zm0 2l-6.5 4.47a1 1 0 01-1 0L5 6h14z"/></svg><svg fill="none" viewBox="0 0 708 708" id="hexan" xmlns="http://www.w3.org/2000/svg"><path d="M23.346 288.057l-.125.217.216.125 11.04 6.373.216.125.125-.216L70.6 232.687l.125-.217-.216-.125-11.04-6.373-.217-.125-.125.217-35.781 61.993zm250.555 3.307l-68.399 118.484-136.814.006L.288 291.37l68.406-118.485 136.808-.005 68.399 118.484zm433.416.006l-68.405 118.478H502.16l-68.433-118.529 68.376-118.434h136.809l68.405 118.485zM431.84 357.048l-.125-.217-.216.125-11.04 6.374-.216.125.125.216 32.396 56.11.125.217.216-.125 11.04-6.374.216-.125-.125-.216-32.396-56.11zm58.81 59.476l-68.376 118.433H285.448l-68.399-118.478 68.399-118.485 136.769-.005 68.433 118.535z" stroke="#00AED5" stroke-opacity=".3" stroke-width=".5"/></svg><svg fill="none" viewBox="0 0 24 24" id="instagram" xmlns="http://www.w3.org/2000/svg"><path d="M12 8.876A3.13 3.13 0 008.874 12a3.13 3.13 0 003.124 3.124A3.13 3.13 0 0015.123 12 3.13 3.13 0 0012 8.876zM21.37 12c0-1.294.011-2.576-.062-3.867-.072-1.5-.414-2.831-1.511-3.928-1.1-1.1-2.428-1.44-3.928-1.512-1.294-.073-2.576-.061-3.867-.061-1.294 0-2.576-.012-3.868.061-1.5.073-2.831.415-3.928 1.512-1.1 1.099-1.439 2.428-1.512 3.928-.072 1.294-.06 2.576-.06 3.867s-.012 2.576.06 3.867c.073 1.5.415 2.831 1.512 3.928 1.1 1.1 2.428 1.44 3.928 1.512 1.294.073 2.576.061 3.867.061 1.294 0 2.576.012 3.868-.061 1.5-.073 2.83-.415 3.928-1.512 1.099-1.099 1.439-2.428 1.511-3.928.076-1.291.061-2.573.061-3.867zM12 16.807A4.8 4.8 0 017.191 12 4.8 4.8 0 0112 7.193 4.8 4.8 0 0116.806 12 4.8 4.8 0 0112 16.807zm5.003-8.688a1.121 1.121 0 01-1.123-1.123c0-.621.502-1.123 1.123-1.123a1.121 1.121 0 01.43 2.16 1.121 1.121 0 01-.43.086z" fill="#fff"/></svg><svg viewBox="0 0 24 24" id="location" xmlns="http://www.w3.org/2000/svg"><path d="M10.89 23.447C8.441 20.437 3 13.144 3 9.047a9 9 0 1118 0c0 4.097-5.484 11.39-7.89 14.4a1.416 1.416 0 01-2.22 0zm1.11-11.4c1.655 0 3-1.345 3-3s-1.345-3-3-3-3 1.345-3 3 1.345 3 3 3z"/></svg><svg fill="none" viewBox="0 0 35 36" id="old-phone" xmlns="http://www.w3.org/2000/svg"><path d="M19.153 19.649a15.837 15.837 0 003.237-4.669l-3.37-3.37a3.246 3.246 0 01-.957-2.308 3.251 3.251 0 01.957-2.304l4.608-4.608a3.246 3.246 0 012.308-.957 3.25 3.25 0 012.305.957l4.282 4.278a5.292 5.292 0 011.476 4.577c-.905 5.436-3.784 10.808-8.119 15.14-4.339 4.334-9.715 7.217-15.135 8.11a4.94 4.94 0 01-.853.072 5.285 5.285 0 01-3.728-1.544L1.89 28.748a3.246 3.246 0 01-.957-2.308 3.253 3.253 0 01.957-2.308l4.612-4.604a3.246 3.246 0 012.308-.957c.428 0 .852.084 1.248.249m9.095.829a15.898 15.898 0 01-4.669 3.249l-3.37-3.37a3.251 3.251 0 00-1.056-.708m9.095.829l.353.354v-.001m-.353-.353l.354.352v.001m-9.45-1.182l-.19.461a2.75 2.75 0 00-1.057-.21c-.74 0-1.432.289-1.954.81l-4.613 4.605a2.754 2.754 0 00-.81 1.954c0 .74.289 1.433.81 1.955l4.275 4.274v.001a4.785 4.785 0 003.374 1.397c.266 0 .518-.022.767-.065h.004c5.306-.874 10.59-3.702 14.864-7.972 4.269-4.265 7.093-9.545 7.978-14.867a4.792 4.792 0 00-1.336-4.142l-4.282-4.277v-.001a2.75 2.75 0 00-1.95-.81c-.74 0-1.433.289-1.955.81l-4.608 4.609h-.001a2.75 2.75 0 00-.81 1.95c0 .74.289 1.433.81 1.955l3.37 3.37.245.244-.143.316a16.337 16.337 0 01-3.338 4.815m-9.45-1.182l-.19.461c.334.14.637.343.893.6l3.37 3.37.246.246.316-.144a16.397 16.397 0 004.814-3.351" stroke="#fff"/></svg><svg viewBox="0 0 24 24" id="pdf" xmlns="http://www.w3.org/2000/svg"><path d="M8.267 14.68c-.184 0-.308.018-.372.036v1.178c.076.018.171.023.302.023.479 0 .774-.242.774-.651 0-.366-.254-.586-.704-.586zm3.487.012c-.2 0-.33.018-.407.036v2.61c.077.018.201.018.313.018.817.006 1.349-.444 1.349-1.396.006-.83-.479-1.268-1.255-1.268z"/><path d="M14 2H6a2 2 0 00-2 2v16a2 2 0 002 2h12a2 2 0 002-2V8l-6-6zM9.498 16.19c-.309.29-.765.42-1.296.42a2.233 2.233 0 01-.308-.018v1.426H7v-3.936A7.53 7.53 0 018.219 14c.557 0 .953.106 1.22.319.254.202.426.533.426.923-.001.392-.131.723-.367.948zm3.807 1.355c-.42.349-1.059.515-1.84.515-.468 0-.799-.03-1.024-.06v-3.917A7.942 7.942 0 0111.66 14c.757 0 1.249.136 1.633.426.415.308.675.799.675 1.504 0 .763-.279 1.29-.663 1.615zM17 14.77h-1.532v.911H16.9v.734h-1.432v1.604h-.906V14.03H17v.74zM14 9h-1V4l5 5h-4z"/></svg><svg viewBox="0 0 24 24" id="phone" xmlns="http://www.w3.org/2000/svg"><path d="M13.446 6.24l3.383-3.905c.39-.45 1.105-.448 1.558.006l2.782 2.787c.828.829 1.065 2.06.586 3.047a29.207 29.207 0 01-13.561 13.58c-.986.479-2.216.242-3.044-.587l-2.808-2.813c-.455-.455-.456-1.174-.002-1.564l3.92-3.365c.41-.352 1.047-.306 1.458.106l1.364 1.366a.462.462 0 00.553.088 14.556 14.556 0 005.36-5.367.463.463 0 00-.088-.554l-1.36-1.361c-.412-.414-.457-1.054-.101-1.465v.001z"/></svg><svg viewBox="0 0 40 40" id="quotes" xmlns="http://www.w3.org/2000/svg"><path d="M14 12l2-4h-4c-4.42 0-8 5.58-8 10v14h14V18h-8c0-6 4-6 4-6zm14 6c0-6 4-6 4-6l2-4h-4c-4.42 0-8 5.58-8 10v14h14V18h-8z"/></svg><svg viewBox="0 0 24 24" id="schedule" xmlns="http://www.w3.org/2000/svg"><path d="M23.143 4.286h-4.286v-1.5a.215.215 0 00-.214-.215h-1.5a.215.215 0 00-.214.215v1.5h-3.965v-1.5a.215.215 0 00-.214-.215h-1.5a.215.215 0 00-.214.215v1.5H7.07v-1.5a.215.215 0 00-.214-.215h-1.5a.215.215 0 00-.214.215v1.5H.857A.856.856 0 000 5.143V20.57c0 .474.383.857.857.857h22.286A.856.856 0 0024 20.57V5.143a.856.856 0 00-.857-.857zm-13.5 12.428a.215.215 0 01-.214.214H4.5a.215.215 0 01-.214-.214v-1.286c0-.117.096-.214.214-.214h4.929c.117 0 .214.097.214.214v1.286zm0-3.643a.215.215 0 01-.214.215H4.5a.215.215 0 01-.214-.215v-1.285c0-.118.096-.215.214-.215h4.929c.117 0 .214.097.214.215v1.285zm10.031-2.445l-4.42 6.126a.426.426 0 01-.69 0l-3.06-4.238a.215.215 0 01.175-.34h1.47a.43.43 0 01.346.177l1.414 1.958 2.778-3.85a.423.423 0 01.345-.176H19.5c.174.003.276.2.174.343z"/></svg><svg fill="none" viewBox="0 0 21 22" id="show-more" xmlns="http://www.w3.org/2000/svg"><path d="M5.625 6.875h-4.5m0 5.25c0 3.75 4.197 8.25 9.375 8.25a9.375 9.375 0 100-18.75c-5.625 0-9.375 5.25-9.375 5.25v-5.25" stroke="#fff" stroke-width="1.5" stroke-linecap="round" stroke-linejoin="round"/></svg><svg viewBox="0 0 16 16" id="small-arrow" xmlns="http://www.w3.org/2000/svg"><path d="M3.82 14.173a.5.5 0 01.091-.567l4.625-4.757a.5.5 0 000-.698L3.911 3.394a.5.5 0 01-.09-.567l.576-1.186a.5.5 0 01.808-.13l6.456 6.64a.5.5 0 010 .698l-6.456 6.64a.5.5 0 01-.808-.13l-.577-1.186z"/></svg><svg viewBox="0 0 104 104" fill="none" id="small-hexan" xmlns="http://www.w3.org/2000/svg"><path d="M27.97 72.36l.126.217.216-.125 3.36-1.94.216-.124-.125-.217-9.858-17.074-.125-.216-.216.125-3.36 1.94-.216.124.125.217 9.858 17.073zM10.428 54.175l20.706-35.864h41.434L93.28 54.19 72.567 90.07l-41.417.001-20.723-35.895z" stroke="#00AED5" stroke-opacity=".3" stroke-width=".5"/></svg><svg fill="none" viewBox="0 0 228 265" id="teeth" xmlns="http://www.w3.org/2000/svg"><g clip-path="url(#ta)"><path d="M207.076 172.461c.714-2.141.146-4.157 1.43-4.705 1.285-.548 2.732 1.621 3.085 2.748.352 1.127 0 4.964 0 4.964s-.669 13.037-.12 15.756c.549 2.718 1.359 3.667 1.354 5.962-.006 2.295-.485 8.849-1.354 10.551-.869 1.703-2.834 4.976-5.62 5.192-2.785.217-4.566-4.298-5.919-4.92-1.352-.623-3.089.278-4.791-.54-1.702-.818-1.756-6.072-1.336-7.801.419-1.729 3.503-8.822 3.803-9.573.301-.752 8.754-15.493 9.468-17.634zm-89.514 49.351c.174-1.063.771-1.979-1.05-2.61-1.819-.63-4.494 2.21-6.141 2.61-1.648.4-8.434-1.839-9.941.768-1.506 2.607-2.185 24.812-.889 27.942 1.297 3.13 3.969 5.848 4.768 6.986.8 1.138 2.126 6.501 4.769 6.217 2.643-.282 3.464-2.505 3.879-3.3.414-.795 1.186-9.903 1.535-11.592s1.5-3.684 2.02-6.524c.522-2.841-.89-9.565-.727-11.285.163-1.72 1.603-8.149 1.777-9.212z" fill="#fff" stroke="#909090" stroke-opacity=".25"/><path d="M113.519 221.812c-.166-1.063-.733-1.979.999-2.61 1.732-.63 4.279 2.21 5.847 2.61 1.57.4 7.636-.735 9.464.768 1.829 1.503 2.081 24.812.847 27.942-1.235 3.13-3.779 5.848-4.54 6.986-.761 1.138-2.023 6.501-4.539 6.217-2.516-.282-3.299-2.505-3.693-3.3-.395-.795-1.13-9.903-1.463-11.592-.331-1.689-1.427-3.684-1.923-6.524-.496-2.841.848-9.565.693-11.285-.156-1.72-1.527-8.149-1.692-9.212zm-38.013-4.759c.124-1.216.609-3.789 2.598-4.838 1.99-1.049 4.479-1.095 5.995-.548 1.516.548 4.376 3.882 5.495 4.108 1.12.226 5.25-.285 6.394 0 1.145.285 2.316 2.091 2.698 3.56.382 1.468 0 5.58 0 8.215s-1.254 17.3-1.899 19.259c-.643 1.96-6.523 13.719-8.792 13.875-2.268.155-8.518-15.601-9.391-17.344-.873-1.742-3.044-14.265-3.098-15.79-.053-1.525-.123-9.281 0-10.497zm79.283 0c-.124-1.216-.609-3.789-2.598-4.838-1.989-1.049-4.478-1.095-5.994-.548-1.517.548-4.377 3.882-5.496 4.108-1.119.226-5.249-.285-6.394 0-1.145.285-2.316 2.091-2.698 3.56-.382 1.468 0 5.58 0 8.215s1.254 17.3 1.898 19.259c.645 1.96 6.524 13.719 8.793 13.875 2.269.155 8.518-15.601 9.392-17.344.873-1.742 3.043-14.265 3.097-15.79.053-1.525.124-9.281 0-10.497z" fill="#fff" stroke="#909090" stroke-opacity=".25"/><path d="M67.92 186.371s9.552-13.81 10.019-13.52c.467.29-1.704 3.741-1.977 4.423-.272.683-.788 1.332-1.516 6.854s0 24.923 0 24.923.988 25.081 1.253 26.729c.264 1.647 1.942 8.153 1.846 9.221-.097 1.068-1.213 3.699-1.385 4.673-.172.975-.119 5.552-.937 6.058-.818.506-2.419-1.587-3.305-1.189-.887.398-1.251 4.73-1.822 5.35-.572.62-1.538 1.192-2.967.311-1.428-.881-5.671-7.55-6.262-9.159-.59-1.61-.082-6.471-.923-8.847-.84-2.377-.64-.404-2.044-5.235-1.405-4.829-.389-27.68 0-30.031.389-2.351 2.383-8.35 2.901-9.221.518-.871 7.12-11.34 7.12-11.34zm94.453 0s-9.553-13.81-10.018-13.52c-.467.29 1.704 3.741 1.976 4.423.272.683.789 1.332 1.516 6.854.728 5.522 0 24.923 0 24.923s-.988 25.081-1.252 26.729c-.265 1.647-1.942 8.153-1.846 9.221.097 1.068 1.212 3.699 1.385 4.673.171.975.119 5.552.936 6.058.818.506 2.419-1.587 3.306-1.189.886.398 1.251 4.73 1.821 5.35.571.62 1.538 1.192 2.967.311s5.671-7.55 6.262-9.159c.591-1.61.083-6.471.923-8.847.84-2.377.64-.404 2.044-5.235 1.406-4.829.389-27.68 0-30.031-.389-2.351-2.383-8.35-2.9-9.221-.519-.871-7.12-11.34-7.12-11.34zm-131.648-4.555c.187-1.018 2.118-4.085 3.863-5.042 1.744-.956 2.263.868 2.263.868l.826 1.758c.515 1.366 1.721 4.39 2.428 5.566.706 1.177 4.166 6.357 4.855 7.772.688 1.416.332 2.911 0 4.726-.333 1.815-2.98 8.402-2.98 8.402s-4.18 10.74-4.303 11.132c-.122.392-.372 4.001-.883 4.411-.51.41-.842.271-1.324 0-.481-.27-1.639-2.71-2.427-4.411-.789-1.701-3.619-4.022-4.634-7.876-1.016-3.855 0-12.393 0-12.393.368-1.09 2.13-13.896 2.316-14.913z" fill="#fff" stroke="#909090" stroke-opacity=".25"/><path d="M49.42 196.566c1.729-.57 1.468-2.565 3.05-2.581 1.583-.016 2.933.671 3.317 2.581.384 1.909 1.139 10.989.384 12.167-.756 1.178-1.11 1.834-1.61 3.106-.501 1.272 0 7.566 0 7.884 0 .318-.53 7.475-.53 11.047 0 0-.032 4.367-.323 6.607-.292 2.24 1.59 4.869.813 5.796-.778.927-4.43-4.629-5.092-5.187-.661-.559-.804.119-2.163-.998-1.36-1.118-2.862-9.363-3.815-12.499-.953-3.136-3.901-9.544-4.111-14.292-.21-4.749 2.553-11.14 3.182-12.176.63-1.035.34-.8 2.454-1.455 2.114-.656 2.714.57 4.443 0zm131.868-2.905c-1.827-.589-1.551-2.653-3.222-2.67-1.672-.017-3.096.694-3.502 2.67-.405 1.975-1.289 11.689-.492 12.908.797 1.219.495 1.378 1.345 3.072.849 1.692 0 8.165 0 8.493 0 .329.875 7.287.875 10.985 0 0-.244 4.519.064 6.837.308 2.318-1.276 4.969-.455 5.928.821.96 4.678-4.788 5.376-5.366.698-.578.849.124 2.285-1.033 1.435-1.156 3.021-9.687 4.027-12.932 1.006-3.245 4.12-9.875 4.341-14.789.222-4.912-2.696-11.525-3.36-12.596-.664-1.072-.36-.829-2.591-1.507-2.231-.678-2.865.59-4.691 0z" fill="#fff" stroke="#909090" stroke-opacity=".25"/><path d="M18.303 181.898c.116-.933.612-5.678 2.216-6.823 1.604-1.144 8.948 7.471 9.97 8.937 1.022 1.466.182 5.325 0 6.919-.182 1.594-2.112 6.508-2.417 7.303-.305.796-3.46 6.231-5.136 6.535-1.672.303-3.785-3.548-4.629-5.086l-.004-.007c-.841-1.534-1.125-2.178-1.309-3.652-.184-1.473-.096-3.338 0-4.517.096-1.177 1.193-8.676 1.31-9.609z" fill="#fff"/><path d="M17.971 199.866l.334-.183-.334.183zm0 0l.004.006c.42.768 1.17 2.135 2.03 3.273.43.57.901 1.102 1.387 1.475.478.367 1.034.628 1.61.523.29-.052.578-.207.846-.401a6.26 6.26 0 00.83-.748c.555-.585 1.129-1.335 1.652-2.091a33.968 33.968 0 001.375-2.163c.363-.624.633-1.138.722-1.37l.089-.232c.223-.577.701-1.816 1.168-3.129.273-.766.543-1.561.757-2.266.211-.698.376-1.333.425-1.769.03-.256.08-.592.137-.978.11-.74.247-1.661.316-2.543.053-.685.07-1.38.004-2.005-.064-.618-.213-1.209-.523-1.653-.527-.757-2.635-3.295-4.808-5.497-1.086-1.102-2.204-2.135-3.16-2.824-.477-.343-.933-.615-1.338-.761-.388-.141-.839-.204-1.198.053-.485.346-.851.933-1.134 1.573-.287.651-.51 1.405-.681 2.14-.311 1.326-.468 2.63-.538 3.21l-.02.162c-.035.287-.17 1.242-.342 2.45-.369 2.597-.903 6.366-.968 7.176-.097 1.183-.188 3.081.001 4.595.095.755.217 1.315.429 1.888.21.566.504 1.132.924 1.899l.004.007z" stroke="#909090" stroke-opacity=".25"/><path d="M139.856 5.617c-.685-.667-3.049-4.01-5.064-4.166-2.014-.156-3.376 1.72-4.206 2.727-.83 1.007-1.661 1.894-2.181 2.575 0 0-5.873 7.727-6.388 8.711-.514.984-3.201 7.538-3.739 9.014-.538 1.476-1.169 4.06-1.48 5-.311.94-.623 5.984-.623 5.984s-.687 6.092-.857 7.044c-.17.953 0 8.787 0 8.787s.268 5.674.857 6.969c.588 1.295 2.458 3.176 3.427 3.787.969.612 4.196 2.014 5.376 2.273 1.179.26 5.829 0 6.543 0 .715 0 5.624-.859 6.388-1.06.764-.202 4.868-1.493 6.077-1.894 1.207-.401 2.854-1.62 4.05-3.106 1.197-1.486 1.089-2.212 1.402-4.015.312-1.802.501-4.65.466-5.378-.035-.727-.466-8.483-.466-8.787v-6.665c0-1.796-.306-4.676-1.079-8.31-.771-3.633-1.785-5.266-2.427-7.219-.642-1.952-2.223-6.038-2.492-6.817-.271-.78-2.727-4.62-3.584-5.454z" fill="#fff"/><path d="M115.318 51.293l-.381.018v-.01l.381-.008zm0 0l-.381.008v-.005l-.001-.017-.001-.066-.005-.25-.017-.902c-.013-.75-.029-1.76-.04-2.8-.011-1.04-.016-2.111-.008-2.983.004-.436.012-.825.023-1.135a6.24 6.24 0 01.055-.703c.083-.462.295-2.207.489-3.857l.255-2.198.08-.702.022-.195.005-.051.001-.008.001-.005.002-.043.011-.163.039-.586c.035-.488.083-1.15.142-1.842.059-.69.128-1.414.202-2.026.071-.596.152-1.127.244-1.405.117-.354.282-.948.472-1.64l.178-.642c.264-.946.56-1.975.834-2.729.272-.746 1.081-2.762 1.884-4.706.8-1.937 1.609-3.842 1.876-4.354.144-.276.629-.971 1.244-1.822a253.27 253.27 0 012.175-2.953 599.147 599.147 0 012.076-2.766l.673-.89.188-.246.049-.065.013-.017.003-.004.001-.001.304.23-.304-.23c.269-.353.615-.755.99-1.186l.13-.149c.341-.392.706-.81 1.07-1.253.056-.067.115-.14.177-.217.388-.477.903-1.113 1.534-1.634.738-.61 1.677-1.102 2.82-1.013.597.046 1.187.324 1.728.686.545.366 1.07.839 1.544 1.317.474.48.904.974 1.255 1.385l.204.24c.256.301.445.524.569.645.24.233.571.654.926 1.143.36.496.759 1.084 1.139 1.67.381.584.743 1.169 1.028 1.658.278.476.503.894.584 1.13.083.24.309.841.598 1.61.599 1.592 1.467 3.905 1.897 5.214.202.615.438 1.186.696 1.813.147.358.302.734.462 1.147a26.696 26.696 0 011.28 4.298c.776 3.65 1.087 6.558 1.087 8.389v6.702l.003.088.014.292.05.962.152 2.835.102 1.855c.073 1.343.133 2.446.145 2.7.037.763-.157 3.641-.472 5.461-.052.297-.093.575-.132.837-.072.49-.136.924-.245 1.324-.178.652-.478 1.251-1.103 2.027-1.227 1.525-2.93 2.798-4.227 3.229-1.208.4-5.323 1.695-6.1 1.9-.402.107-1.84.375-3.246.613-.708.12-1.415.235-1.992.319-.562.082-1.035.141-1.247.141-.16 0-.514.013-.986.03-.574.022-1.321.05-2.103.067a48.76 48.76 0 01-2.042.013c-.611-.013-1.158-.045-1.495-.119-.629-.138-1.762-.567-2.834-1.026-1.076-.46-2.15-.973-2.663-1.296-.524-.33-1.259-.98-1.932-1.7-.67-.717-1.319-1.547-1.639-2.252-.172-.379-.304-1.027-.412-1.736a40.325 40.325 0 01-.27-2.358 81.63 81.63 0 01-.196-2.765c-.004-.08-.008-.141-.009-.184l-.003-.048v-.013l-.001-.003.381-.019z" stroke="#909090" stroke-opacity=".25"/><path d="M90.627 5.617c.686-.667 3.05-4.01 5.063-4.166 2.015-.156 3.377 1.72 4.206 2.727.831 1.007 1.663 1.894 2.182 2.575 0 0 5.873 7.727 6.388 8.711.515.984 3.202 7.538 3.739 9.014.538 1.476 1.169 4.06 1.48 5 .312.94.623 5.984.623 5.984s.688 6.092.858 7.044c.17.953 0 8.787 0 8.787s-.269 5.674-.858 6.969c-.587 1.295-2.458 3.176-3.427 3.787-.969.612-4.196 2.014-5.375 2.273-1.18.26-5.83 0-6.544 0-.714 0-5.624-.859-6.388-1.06-.764-.202-4.868-1.493-6.076-1.894-1.209-.401-2.854-1.62-4.05-3.106-1.197-1.486-1.09-2.212-1.402-4.015-.312-1.802-.502-4.65-.468-5.378.035-.727.468-8.483.468-8.787v-6.665c0-1.796.305-4.676 1.077-8.31.773-3.633 1.786-5.266 2.428-7.219.642-1.952 2.222-6.038 2.493-6.817.27-.78 2.727-4.62 3.583-5.454z" fill="#fff"/><path d="M115.166 51.293l.381.018v-.01l-.381-.008zm0 0l.381.008v-.021l.001-.066.006-.25.017-.902c.013-.75.029-1.76.04-2.8.01-1.04.015-2.111.008-2.983a44.73 44.73 0 00-.023-1.135 6.022 6.022 0 00-.055-.703c-.083-.462-.295-2.207-.489-3.857l-.255-2.198-.08-.702-.022-.195-.005-.051-.002-.008v-.006l-.002-.042-.011-.163-.039-.586c-.035-.488-.083-1.15-.142-1.842a60.641 60.641 0 00-.201-2.026c-.072-.596-.154-1.127-.245-1.405a39.94 39.94 0 01-.473-1.64 68 68 0 00-.178-.642c-.263-.946-.559-1.975-.833-2.729-.272-.746-1.081-2.762-1.884-4.706-.8-1.937-1.609-3.842-1.876-4.354-.144-.276-.629-.971-1.244-1.822a240.65 240.65 0 00-2.175-2.953 596.24 596.24 0 00-2.077-2.766l-.672-.89-.188-.246-.049-.065-.013-.017-.003-.004-.001-.001-.304.23.304-.23a25.699 25.699 0 00-.99-1.186l-.13-.149c-.341-.392-.706-.81-1.07-1.253-.056-.067-.116-.14-.177-.217-.388-.477-.903-1.113-1.534-1.634-.738-.61-1.677-1.102-2.82-1.013-.597.046-1.187.324-1.728.686-.545.366-1.07.839-1.544 1.317-.474.48-.904.974-1.255 1.385l-.204.24c-.256.301-.446.524-.57.645-.24.233-.57.654-.925 1.143-.36.496-.76 1.084-1.139 1.67-.38.584-.743 1.169-1.028 1.658-.278.476-.502.894-.585 1.13-.083.24-.309.841-.597 1.61-.599 1.592-1.467 3.905-1.897 5.214-.202.615-.438 1.186-.695 1.813-.148.358-.303.734-.463 1.147a26.703 26.703 0 00-1.28 4.298c-.776 3.65-1.087 6.558-1.087 8.389v6.702l-.004.088-.014.292a1602.36 1602.36 0 01-.201 3.798l-.102 1.854c-.073 1.343-.133 2.446-.145 2.7-.037.763.157 3.641.473 5.461.05.297.092.575.13.837.072.49.136.924.246 1.324.178.652.478 1.251 1.103 2.027 1.227 1.525 2.93 2.798 4.227 3.229 1.208.4 5.322 1.695 6.1 1.9.402.107 1.84.375 3.246.613.708.12 1.415.235 1.992.319.562.082 1.035.141 1.247.141.16 0 .514.013.986.03.574.022 1.321.05 2.103.067.701.017 1.422.025 2.043.013.61-.013 1.157-.045 1.494-.119.629-.138 1.762-.567 2.835-1.026 1.075-.46 2.149-.973 2.662-1.296.523-.33 1.259-.98 1.932-1.7.67-.717 1.319-1.547 1.639-2.252.172-.379.305-1.027.412-1.736.109-.725.199-1.564.269-2.358.071-.794.124-1.547.158-2.102.018-.277.03-.505.039-.663l.009-.184.002-.048.001-.013v-.003l-.38-.019z" stroke="#909090" stroke-opacity=".25"/><path d="M59.731 16.046c.843-1.558 2.72-3.995 4.463-4.708 1.743-.713 6.14 5.121 7.02 6.338.88 1.217 2.855 4.46 3.513 5.624.658 1.165 2.483 5.562 2.983 7.143.5 1.582 1.074 5.101 1.359 7.305.286 2.204.84 6.85 1.127 8.113.286 1.263 1.16 8.34 1.16 8.34s.662 5.612-.218 8.473c-.881 2.86-2.812 5.287-2.812 5.287s-3.038 4.345-4.798 5.24c-1.76.896-6.398.486-8.293-.33-1.88-.808-5.473-4.102-6.594-5.13l-.026-.023c-1.09-1-5.723-4.396-6.709-6.015-.986-1.619-.553-6.07-.594-7.812-.042-1.742 1.59-14.15 1.673-15.338.082-1.187.571-7.345.836-8.718.265-1.374 1.17-4.25 2.537-7.244 1.418-3.108 2.531-4.988 3.373-6.545zm110.689 0c-.842-1.558-2.719-3.995-4.462-4.708-1.744-.713-6.14 5.121-7.02 6.338-.881 1.217-2.856 4.46-3.513 5.624-.658 1.165-2.483 5.562-2.983 7.143-.501 1.582-1.073 5.101-1.359 7.305-.286 2.204-.841 6.85-1.127 8.113-.286 1.263-1.16 8.34-1.16 8.34s-.663 5.612.218 8.473c.881 2.86 2.812 5.287 2.812 5.287s3.038 4.345 4.797 5.24c1.76.896 6.399.486 8.294-.33 1.88-.808 5.472-4.102 6.593-5.13l.026-.023c1.092-1 5.723-4.396 6.709-6.015.987-1.619.553-6.07.595-7.812.042-1.742-1.591-14.15-1.673-15.338-.082-1.187-.571-7.345-.837-8.718-.264-1.374-1.17-4.25-2.537-7.244-1.417-3.108-2.53-4.988-3.373-6.545z" fill="#fff" stroke="#909090" stroke-opacity=".25"/><path d="M28.288 24.737c.168-.482 2.603-7.658 3.767-8.072 1.164-.414 1.884.974 1.884.974l4.371 6.042s7.108 13.741 7.845 15.602c.736 1.86 4.273 11.797 4.641 12.873.37 1.075.942 5.198 1.011 7.363.07 2.163.644 14.674.644 14.674V86.86s1.314 9.505 1.548 10.813c.234 1.307 2.113 8.869 1.178 9.166-.935.297-7-6.213-8.057-7.509-1.057-1.295-8.489-9.258-9.136-10.229-.648-.97-5.497-8.167-6.486-10.576-.99-2.41-6.928-27.194-7.045-28.599-.118-1.405 0-7.097 0-7.097s.681-8.036.837-8.977c.155-.94 2.83-8.633 2.998-9.115zm174.67 0c-.167-.482-2.602-7.658-3.767-8.072-1.163-.414-1.883.974-1.883.974l-4.372 6.042s-7.107 13.741-7.844 15.602c-.736 1.86-4.273 11.797-4.642 12.873-.369 1.075-.941 5.198-1.011 7.363-.069 2.163-.643 14.674-.643 14.674V86.86s-1.314 9.505-1.548 10.813c-.234 1.307-2.113 8.869-1.178 9.166.934.297 7-6.213 8.057-7.509 1.057-1.295 8.489-9.258 9.136-10.229.647-.97 5.496-8.167 6.486-10.576.99-2.41 6.927-27.194 7.045-28.599.117-1.405 0-7.097 0-7.097s-.682-8.036-.837-8.977c-.156-.94-2.831-8.633-2.999-9.115z" fill="#fff" stroke="#909090" stroke-opacity=".25" stroke-linejoin="round"/><path d="M15.401 52.426c.056-1.117 1.478-5.634 2.961-5.811 1.483-.178 1.788.855 2.71 1.405.924.55 1.264.739 2.017 1.532.753.794 1.51 1.065 2.143 2.108.632 1.043 2.435 6.79 2.914 7.923.478 1.133 1.534 5.899 1.613 6.65.079.752.516 5.14.434 6.293-.082 1.153.075 1.22-.161 2.172-.236.951-.636 2.07-1.115 2.777-.48.706-1.305 2.055-1.722 2.92-.416.866-2.616 3.586-3.286 4.063-.67.477-2.34.91-3.53.604-1.19-.306-1.797-.405-2.331-1.469-.535-1.064-1.558-12.084-1.58-13.592-.02-1.51-.06-2.375-.374-3.205-.315-.83-.631-3.126-.693-4.279-.061-1.153-.055-8.973 0-10.09zm200.114 0c-.056-1.117-1.477-5.634-2.961-5.811-1.483-.178-1.788.855-2.71 1.405-.924.55-1.264.739-2.017 1.532-.753.794-1.511 1.065-2.143 2.108-.632 1.043-2.435 6.79-2.914 7.923-.478 1.133-1.534 5.899-1.613 6.65-.079.752-.516 5.14-.434 6.293.082 1.153-.075 1.22.161 2.172.236.951.636 2.07 1.115 2.777.479.706 1.305 2.055 1.722 2.92.416.866 2.616 3.586 3.286 4.063.671.477 2.34.91 3.53.604 1.19-.306 1.796-.405 2.332-1.469.534-1.064 1.557-12.084 1.578-13.592.022-1.51.06-2.375.375-3.205.315-.83.631-3.126.693-4.279.062-1.153.055-8.973 0-10.09z" fill="#fff" stroke="#919191" stroke-opacity=".25" stroke-linejoin="round"/><path d="M2.383 68.416c.342-.708 2.326-2.43 2.543-2.581.216-.151 2.901.13 3.051.287.15.156 1.886 3.393 1.933 3.563.048.17 2.099 5.641 2.25 5.998.15.356 1.63 6.097 1.63 6.097s1.52 5.044 1.563 5.467c.043.424-.266 3.157-.367 3.37-.1.211-.611 1.18-.9 1.271-.29.092-.947-.21-1.35-.612-.404-.402-.682-1.357-.872-1.884-.19-.527-1.217-1.272-1.954-1.378-.736-.105-2.786-.991-3.039-1.288-.253-.297-5.564-9.633-5.77-10.324-.205-.691-.258-3.01-.155-4.28.103-1.27 1.095-2.998 1.437-3.706z" fill="#fff" stroke="#fff"/><path d="M223.087 67.972c-.468-.632-2.737-1.958-2.978-2.066-.241-.109-2.827.664-2.945.845-.119.182-1.224 3.683-1.239 3.859-.015.176-1.015 5.931-1.097 6.31-.083.377-.471 6.293-.471 6.293s-.558 5.237-.521 5.66c.036.425.846 3.054.985 3.243.139.19.82 1.047 1.121 1.085.301.037.891-.38 1.213-.851.322-.47.417-1.46.507-2.013.089-.553.96-1.475 1.664-1.714.704-.24 2.554-1.49 2.747-1.828.194-.338 3.682-10.494 3.755-11.211.074-.718-.304-3.006-.641-4.235-.337-1.229-1.633-2.744-2.1-3.377z" fill="#fff" stroke="#909090" stroke-opacity=".25"/></g><defs><clipPath id="ta"><path fill="#fff" transform="translate(0 .5)" d="M0 0h228v264H0z"/></clipPath></defs></svg><svg fill="none" viewBox="0 0 24 24" id="telegram" xmlns="http://www.w3.org/2000/svg"><path d="M20.665 3.717l-17.73 6.837c-1.21.486-1.203 1.16-.222 1.462l4.552 1.42L17.797 6.79c.498-.303.953-.14.579.192l-8.533 7.7H9.84l.002.002-.314 4.692c.46 0 .663-.211.92-.46l2.212-2.15 4.599 3.397c.848.467 1.457.227 1.668-.785l3.02-14.228c.309-1.24-.473-1.8-1.282-1.434z" fill="#fff"/></svg></svg>