<svg width="708" height="708" viewBox="0 0 708 708" fill="none" xmlns="http://www.w3.org/2000/svg">
<path d="M23.3456 288.057L23.2206 288.274L23.4371 288.399L34.4768 294.772L34.6934 294.897L34.8184 294.681L70.6 232.687L70.725 232.47L70.5085 232.345L59.4688 225.972L59.2523 225.847L59.1273 226.064L23.3456 288.057ZM273.901 291.364L205.502 409.848L68.6878 409.854L0.288672 291.37L68.6936 172.885L205.502 172.88L273.901 291.364Z" stroke="#00AED5" stroke-opacity="0.3" stroke-width="0.5"/>
<path d="M707.317 291.37L638.912 409.848H502.16L433.727 291.319L502.103 172.885H638.912L707.317 291.37Z" stroke="#00AED5" stroke-opacity="0.3" stroke-width="0.5"/>
<path d="M431.84 357.048L431.715 356.831L431.499 356.956L420.459 363.33L420.243 363.455L420.368 363.671L452.764 419.781L452.889 419.998L453.105 419.873L464.145 413.499L464.361 413.374L464.236 413.158L431.84 357.048ZM490.65 416.524L422.274 534.957H285.448L217.049 416.479L285.448 297.994L422.217 297.989L490.65 416.524Z" stroke="#00AED5" stroke-opacity="0.3" stroke-width="0.5"/>
</svg>
