<svg viewBox="0 0 24 24" xmlns="http://www.w3.org/2000/svg">
<path d="M13.446 6.24003L16.829 2.33503C17.219 1.88503 17.934 1.88703 18.387 2.34103L21.169 5.12803C21.997 5.95703 22.234 7.18803 21.755 8.17503C18.8934 14.1 14.115 18.8851 8.194 21.755C7.208 22.234 5.978 21.997 5.15 21.168L2.342 18.355C1.887 17.9 1.886 17.181 2.34 16.791L6.26 13.426C6.67 13.074 7.307 13.12 7.718 13.532L9.082 14.898C9.15183 14.9712 9.24375 15.0195 9.34365 15.0354C9.44355 15.0513 9.5459 15.0339 9.635 14.986C11.8646 13.7021 13.714 11.8503 14.995 9.61903C15.043 9.52978 15.0603 9.42726 15.0444 9.32719C15.0286 9.22711 14.9803 9.13502 14.907 9.06503L13.547 7.70403C13.135 7.29003 13.09 6.65003 13.446 6.23903V6.24003Z"/>
</svg>
