<svg width="228" height="265" viewBox="0 0 228 265" fill="none" xmlns="http://www.w3.org/2000/svg">
<g clip-path="url(#clip0_42_858)">
<path d="M207.076 172.461C207.79 170.32 207.222 168.304 208.506 167.756C209.791 167.208 211.238 169.377 211.591 170.504C211.943 171.631 211.591 175.468 211.591 175.468C211.591 175.468 210.922 188.505 211.471 191.224C212.02 193.942 212.83 194.891 212.825 197.186C212.819 199.481 212.34 206.035 211.471 207.737C210.602 209.44 208.637 212.713 205.851 212.929C203.066 213.146 201.285 208.631 199.932 208.009C198.58 207.386 196.843 208.287 195.141 207.469C193.439 206.651 193.385 201.397 193.805 199.668C194.224 197.939 197.308 190.846 197.608 190.095C197.909 189.343 206.362 174.602 207.076 172.461Z" fill="white" stroke="#909090" stroke-opacity="0.25"/>
<path d="M117.562 221.812C117.736 220.749 118.333 219.833 116.512 219.202C114.693 218.572 112.018 221.412 110.371 221.812C108.723 222.212 101.937 219.973 100.43 222.58C98.9243 225.187 98.2449 247.392 99.5412 250.522C100.838 253.652 103.51 256.37 104.309 257.508C105.109 258.646 106.435 264.009 109.078 263.725C111.721 263.443 112.542 261.22 112.957 260.425C113.371 259.63 114.143 250.522 114.492 248.833C114.841 247.144 115.992 245.149 116.512 242.309C117.034 239.468 115.622 232.744 115.785 231.024C115.948 229.304 117.388 222.875 117.562 221.812Z" fill="white" stroke="#909090" stroke-opacity="0.25"/>
<path d="M113.519 221.812C113.353 220.749 112.786 219.833 114.518 219.202C116.25 218.572 118.797 221.412 120.365 221.812C121.935 222.212 128.001 221.077 129.829 222.58C131.658 224.083 131.91 247.392 130.676 250.522C129.441 253.652 126.897 256.37 126.136 257.508C125.375 258.646 124.113 264.009 121.597 263.725C119.081 263.443 118.298 261.22 117.904 260.425C117.509 259.63 116.774 250.522 116.441 248.833C116.11 247.144 115.014 245.149 114.518 242.309C114.022 239.468 115.366 232.744 115.211 231.024C115.055 229.304 113.684 222.875 113.519 221.812Z" fill="white" stroke="#909090" stroke-opacity="0.25"/>
<path d="M75.5064 217.053C75.6301 215.837 76.1145 213.264 78.1043 212.215C80.0938 211.166 82.5827 211.12 84.0987 211.667C85.6146 212.215 88.4749 215.549 89.5943 215.775C90.7137 216.001 94.8436 215.49 95.9882 215.775C97.1335 216.06 98.304 217.866 98.6861 219.335C99.0681 220.803 98.6861 224.915 98.6861 227.55C98.6861 230.185 97.4317 244.85 96.7874 246.809C96.1438 248.769 90.2638 260.528 87.9952 260.684C85.7267 260.839 79.4769 245.083 78.6038 243.34C77.7307 241.598 75.56 229.075 75.5064 227.55C75.4528 226.025 75.3827 218.269 75.5064 217.053Z" fill="white" stroke="#909090" stroke-opacity="0.25"/>
<path d="M154.789 217.053C154.665 215.837 154.18 213.264 152.191 212.215C150.202 211.166 147.713 211.12 146.197 211.667C144.68 212.215 141.82 215.549 140.701 215.775C139.582 216.001 135.452 215.49 134.307 215.775C133.162 216.06 131.991 217.866 131.609 219.335C131.227 220.803 131.609 224.915 131.609 227.55C131.609 230.185 132.863 244.85 133.507 246.809C134.152 248.769 140.031 260.528 142.3 260.684C144.569 260.839 150.818 245.083 151.692 243.34C152.565 241.598 154.735 229.075 154.789 227.55C154.842 226.025 154.913 218.269 154.789 217.053Z" fill="white" stroke="#909090" stroke-opacity="0.25"/>
<path d="M67.9202 186.371C67.9202 186.371 77.4722 172.561 77.9389 172.851C78.4056 173.141 76.2346 176.592 75.9623 177.274C75.69 177.957 75.1741 178.606 74.4462 184.128C73.7184 189.65 74.4462 209.051 74.4462 209.051C74.4462 209.051 75.434 234.132 75.6987 235.78C75.9633 237.427 77.6407 243.933 77.5446 245.001C77.4478 246.069 76.3322 248.7 76.1601 249.674C75.9879 250.649 76.041 255.226 75.2232 255.732C74.4053 256.238 72.8044 254.145 71.9175 254.543C71.0306 254.941 70.6668 259.273 70.0956 259.893C69.5245 260.513 68.5579 261.085 67.1293 260.204C65.7008 259.323 61.4576 252.654 60.8671 251.045C60.2766 249.435 60.7848 244.574 59.9443 242.198C59.1037 239.821 59.3049 241.794 57.8998 236.963C56.4948 232.134 57.511 209.283 57.8998 206.932C58.2887 204.581 60.2829 198.582 60.801 197.711C61.3191 196.84 67.9202 186.371 67.9202 186.371Z" fill="white" stroke="#909090" stroke-opacity="0.25"/>
<path d="M162.373 186.371C162.373 186.371 152.82 172.561 152.355 172.851C151.888 173.141 154.059 176.592 154.331 177.274C154.603 177.957 155.12 178.606 155.847 184.128C156.575 189.65 155.847 209.051 155.847 209.051C155.847 209.051 154.859 234.132 154.595 235.78C154.33 237.427 152.653 243.933 152.749 245.001C152.846 246.069 153.961 248.7 154.134 249.674C154.305 250.649 154.253 255.226 155.07 255.732C155.888 256.238 157.489 254.145 158.376 254.543C159.262 254.941 159.627 259.273 160.197 259.893C160.768 260.513 161.735 261.085 163.164 260.204C164.593 259.323 168.835 252.654 169.426 251.045C170.017 249.435 169.509 244.574 170.349 242.198C171.189 239.821 170.989 241.794 172.393 236.963C173.799 232.134 172.782 209.283 172.393 206.932C172.004 204.581 170.01 198.582 169.493 197.711C168.974 196.84 162.373 186.371 162.373 186.371Z" fill="white" stroke="#909090" stroke-opacity="0.25"/>
<path d="M30.7251 181.816C30.9119 180.798 32.8432 177.731 34.5879 176.774C36.3324 175.818 36.851 177.642 36.851 177.642L37.6771 179.4C38.1919 180.766 39.3984 183.79 40.1045 184.966C40.8107 186.143 44.2711 191.323 44.9596 192.738C45.648 194.154 45.2921 195.649 44.9596 197.464C44.6271 199.279 41.9804 205.866 41.9804 205.866C41.9804 205.866 37.7992 216.606 37.6771 216.998C37.5549 217.39 37.3046 220.999 36.7943 221.409C36.2841 221.819 35.9516 221.68 35.4702 221.409C34.9888 221.139 33.8314 218.699 33.0427 216.998C32.254 215.297 29.4245 212.976 28.4085 209.122C27.3927 205.267 28.4085 196.729 28.4085 196.729C28.7774 195.639 30.5383 182.833 30.7251 181.816Z" fill="white" stroke="#909090" stroke-opacity="0.25"/>
<path d="M49.4191 196.566C51.1487 195.996 50.8882 194.001 52.4707 193.985C54.0533 193.969 55.4027 194.656 55.7867 196.566C56.1707 198.475 56.926 207.555 56.1707 208.733C55.4154 209.911 55.0615 210.567 54.5607 211.839C54.0599 213.111 54.5607 219.405 54.5607 219.723C54.5607 220.041 54.0308 227.198 54.0308 230.77C54.0308 230.77 53.9995 235.137 53.7079 237.377C53.4163 239.617 55.2985 242.246 54.521 243.173C53.7434 244.1 50.0903 238.544 49.4291 237.986C48.768 237.427 48.6251 238.105 47.2655 236.988C45.9058 235.87 44.4042 227.625 43.4512 224.489C42.4984 221.353 39.55 214.945 39.3395 210.197C39.1291 205.448 41.8931 199.057 42.5224 198.021C43.1516 196.986 42.8629 197.221 44.9763 196.566C47.0897 195.91 47.6895 197.136 49.4191 196.566Z" fill="white" stroke="#909090" stroke-opacity="0.25"/>
<path d="M181.288 193.661C179.461 193.072 179.737 191.008 178.066 190.991C176.394 190.974 174.97 191.685 174.564 193.661C174.159 195.636 173.275 205.35 174.072 206.569C174.869 207.788 174.567 207.947 175.417 209.641C176.266 211.333 175.417 217.806 175.417 218.134C175.417 218.463 176.292 225.421 176.292 229.119C176.292 229.119 176.048 233.638 176.356 235.956C176.664 238.274 175.08 240.925 175.901 241.884C176.722 242.844 180.579 237.096 181.277 236.518C181.975 235.94 182.126 236.642 183.562 235.485C184.997 234.329 186.583 225.798 187.589 222.553C188.595 219.308 191.709 212.678 191.93 207.764C192.152 202.852 189.234 196.239 188.57 195.168C187.906 194.096 188.21 194.339 185.979 193.661C183.748 192.983 183.114 194.251 181.288 193.661Z" fill="white" stroke="#909090" stroke-opacity="0.25"/>
<path d="M18.3031 181.898C18.4194 180.965 18.9152 176.22 20.519 175.075C22.1228 173.931 29.4669 182.546 30.4889 184.012C31.511 185.478 30.6706 189.337 30.4889 190.931C30.3073 192.525 28.3767 197.439 28.072 198.234C27.7674 199.03 24.6113 204.465 22.9361 204.769C21.2636 205.072 19.1511 201.221 18.3071 199.683L18.3031 199.676C17.4617 198.142 17.1779 197.498 16.9941 196.024C16.8102 194.551 16.8983 192.686 16.9941 191.507C17.0898 190.33 18.1869 182.831 18.3031 181.898Z" fill="white"/>
<path d="M17.9711 199.866L18.3055 199.683L17.9711 199.866ZM17.9711 199.866L17.9747 199.872C18.3958 200.64 19.1455 202.007 20.0048 203.145C20.4349 203.715 20.9061 204.247 21.392 204.62C21.8697 204.987 22.4262 205.248 23.0026 205.143C23.2929 205.091 23.5798 204.936 23.8478 204.742C24.1205 204.544 24.4002 204.286 24.6777 203.994C25.233 203.409 25.8067 202.659 26.3301 201.903C26.8548 201.145 27.3356 200.373 27.7047 199.74C28.0678 199.116 28.3378 198.602 28.4267 198.37C28.4484 198.314 28.4786 198.235 28.516 198.138C28.7389 197.561 29.2174 196.322 29.6843 195.009C29.957 194.243 30.2271 193.448 30.4409 192.743C30.6523 192.045 30.8166 191.41 30.8662 190.974C30.8953 190.718 30.9454 190.382 31.0029 189.996C31.113 189.256 31.2501 188.335 31.3189 187.453C31.3723 186.768 31.3888 186.073 31.3233 185.448C31.2586 184.83 31.1098 184.239 30.8004 183.795C30.2726 183.038 28.165 180.5 25.9923 178.298C24.9057 177.196 23.7876 176.163 22.8313 175.474C22.3553 175.131 21.8995 174.859 21.4944 174.713C21.1059 174.572 20.655 174.509 20.2957 174.766C19.8107 175.112 19.4448 175.699 19.162 176.339C18.875 176.99 18.6526 177.744 18.4805 178.479C18.1696 179.805 18.0128 181.109 17.9429 181.689C17.9354 181.752 17.9288 181.806 17.9232 181.851C17.8875 182.138 17.7521 183.093 17.5808 184.301C17.2125 186.898 16.6783 190.667 16.6125 191.477C16.5163 192.66 16.4253 194.558 16.6141 196.072C16.7085 196.827 16.8306 197.387 17.0428 197.96C17.2527 198.526 17.5465 199.092 17.9671 199.859L17.9711 199.866Z" stroke="#909090" stroke-opacity="0.25"/>
<path d="M139.856 5.61703C139.171 4.95045 136.807 1.60692 134.792 1.45088C132.778 1.29484 131.416 3.17103 130.586 4.17782C129.756 5.18461 128.925 6.07152 128.405 6.75325C128.405 6.75325 122.532 14.4805 122.017 15.4643C121.503 16.4481 118.816 23.0022 118.278 24.4784C117.74 25.9545 117.109 28.5371 116.798 29.4777C116.487 30.4183 116.175 35.4618 116.175 35.4618C116.175 35.4618 115.488 41.5542 115.318 42.5064C115.148 43.4585 115.318 51.2931 115.318 51.2931C115.318 51.2931 115.586 56.9666 116.175 58.262C116.763 59.5573 118.633 61.438 119.602 62.0494C120.571 62.6609 123.798 64.0625 124.978 64.3219C126.157 64.5812 130.807 64.3219 131.521 64.3219C132.236 64.3219 137.145 63.4632 137.909 63.2614C138.673 63.0596 142.777 61.7686 143.986 61.3677C145.193 60.9667 146.84 59.7484 148.036 58.262C149.233 56.7757 149.125 56.0499 149.438 54.2474C149.75 52.4449 149.939 49.5965 149.904 48.8692C149.869 48.142 149.438 40.3855 149.438 40.0824V33.4166C149.438 31.621 149.132 28.7408 148.359 25.1073C147.588 21.4738 146.574 19.8409 145.932 17.8882C145.29 15.9356 143.709 11.8502 143.44 11.0709C143.169 10.2916 140.713 6.45026 139.856 5.61703Z" fill="white"/>
<path d="M115.318 51.2931L114.937 51.3111V51.3014L115.318 51.2931ZM115.318 51.2931C114.937 51.3014 114.937 51.3014 114.937 51.3013V51.3011V51.2999V51.2957L114.936 51.2788L114.935 51.2129L114.93 50.9623C114.926 50.7459 114.92 50.4359 114.913 50.0609C114.9 49.3109 114.884 48.3008 114.873 47.2607C114.862 46.221 114.857 45.1496 114.865 44.2775C114.869 43.8417 114.877 43.4535 114.888 43.1428C114.9 42.8412 114.917 42.5888 114.943 42.4397C115.026 41.978 115.238 40.2327 115.432 38.5827C115.528 37.7622 115.62 36.9713 115.687 36.3854C115.72 36.0926 115.748 35.851 115.767 35.6827L115.789 35.4878L115.794 35.4367L115.795 35.4286L115.796 35.4236L115.798 35.3809L115.809 35.2185C115.818 35.0782 115.832 34.877 115.848 34.6325C115.883 34.1439 115.931 33.482 115.99 32.7904C116.049 32.0994 116.118 31.3756 116.192 30.7641C116.263 30.1679 116.344 29.6365 116.436 29.3585C116.553 29.0051 116.718 28.4108 116.908 27.7186C116.965 27.5121 117.025 27.297 117.086 27.077C117.35 26.1308 117.646 25.1024 117.92 24.3485C118.192 23.6015 119.001 21.5864 119.804 19.6418C120.604 17.7052 121.413 15.7996 121.68 15.2883C121.824 15.0118 122.309 14.3167 122.924 13.4658C123.549 12.6006 124.332 11.5407 125.099 10.5128C125.866 9.48452 126.616 8.48726 127.175 7.7471C127.455 7.377 127.687 7.07112 127.848 6.85776L128.036 6.61061L128.085 6.54568L128.098 6.52905L128.101 6.52482L128.102 6.52376V6.52349C128.102 6.52343 128.102 6.52339 128.406 6.75325L128.102 6.52339L128.102 6.52307C128.371 6.17067 128.717 5.76923 129.092 5.33802C129.135 5.28892 129.178 5.23939 129.222 5.18942C129.563 4.79721 129.928 4.37837 130.292 3.93621C130.348 3.86872 130.407 3.79605 130.469 3.71932C130.857 3.24164 131.372 2.60645 132.003 2.08535C132.741 1.47525 133.68 0.983094 134.823 1.07162C135.42 1.11787 136.01 1.39553 136.551 1.75824C137.096 2.12384 137.621 2.59681 138.095 3.07531C138.569 3.55492 138.999 4.04887 139.35 4.46023C139.422 4.54475 139.49 4.62476 139.554 4.69991C139.81 5.00131 139.999 5.22432 140.123 5.34461C140.363 5.57836 140.694 5.99926 141.049 6.48813C141.409 6.98421 141.808 7.57245 142.188 8.15729C142.569 8.74213 142.931 9.32665 143.216 9.81578C143.494 10.2918 143.719 10.7104 143.8 10.9465C143.883 11.1861 144.109 11.787 144.398 12.5556C144.997 14.1484 145.865 16.4611 146.295 17.7696C146.497 18.3846 146.733 18.9557 146.991 19.5829C147.138 19.9407 147.293 20.317 147.453 20.7299C147.889 21.8513 148.342 23.1877 148.733 25.0283C149.509 28.6779 149.82 31.5859 149.82 33.4166V40.0824V40.0823C149.82 40.0823 149.82 40.0831 149.82 40.0848V40.0925L149.82 40.1191C149.821 40.1412 149.822 40.1704 149.823 40.2067C149.827 40.2792 149.832 40.3776 149.837 40.4986C149.849 40.7404 149.866 41.0706 149.887 41.461C149.928 42.2418 149.983 43.2622 150.039 44.2962C150.074 44.9263 150.108 45.5618 150.141 46.1511C150.214 47.4941 150.274 48.5971 150.286 48.851C150.323 49.6144 150.129 52.492 149.814 54.3121C149.762 54.6094 149.721 54.887 149.682 55.1485C149.61 55.6391 149.546 56.0728 149.437 56.4732C149.259 57.125 148.959 57.724 148.334 58.5002C147.107 60.0247 145.404 61.298 144.107 61.7287C142.899 62.1293 138.784 63.4238 138.007 63.6291C137.605 63.7355 136.167 64.0036 134.761 64.2423C134.053 64.3625 133.346 64.4767 132.769 64.5609C132.207 64.643 131.734 64.7023 131.522 64.7023C131.362 64.7023 131.008 64.7153 130.536 64.7326C129.962 64.7538 129.215 64.7813 128.433 64.7994C127.732 64.8156 127.011 64.8239 126.391 64.8116C125.78 64.7995 125.233 64.7673 124.896 64.6934C124.267 64.555 123.134 64.1258 122.062 63.6674C120.986 63.2079 119.912 62.6944 119.399 62.3709C118.875 62.0403 118.14 61.3909 117.467 60.6716C116.797 59.9543 116.148 59.124 115.828 58.419C115.656 58.0404 115.524 57.3923 115.416 56.6834C115.306 55.9584 115.217 55.1191 115.146 54.3255C115.076 53.531 115.023 52.7778 114.989 52.2235C114.971 51.9462 114.958 51.7185 114.95 51.5599C114.946 51.4806 114.942 51.4186 114.941 51.3763L114.938 51.328V51.3155L114.937 51.3123V51.3115V51.3113C114.937 51.3112 114.937 51.3111 115.318 51.2931Z" stroke="#909090" stroke-opacity="0.25"/>
<path d="M90.627 5.61703C91.3125 4.95045 93.6764 1.60692 95.6903 1.45088C97.7049 1.29484 99.0668 3.17103 99.8964 4.17782C100.727 5.18461 101.559 6.07152 102.078 6.75325C102.078 6.75325 107.951 14.4805 108.466 15.4643C108.981 16.4481 111.668 23.0022 112.205 24.4784C112.743 25.9545 113.374 28.5371 113.685 29.4777C113.997 30.4183 114.308 35.4618 114.308 35.4618C114.308 35.4618 114.996 41.5542 115.166 42.5064C115.336 43.4585 115.166 51.2931 115.166 51.2931C115.166 51.2931 114.897 56.9666 114.308 58.262C113.721 59.5573 111.85 61.438 110.881 62.0494C109.912 62.6609 106.685 64.0625 105.506 64.3219C104.326 64.5812 99.6761 64.3219 98.9623 64.3219C98.2478 64.3219 93.3378 63.4632 92.5738 63.2614C91.8097 63.0596 87.7057 61.7686 86.4978 61.3677C85.2892 60.9667 83.6436 59.7484 82.4472 58.262C81.2508 56.7757 81.3583 56.0499 81.0456 54.2474C80.7338 52.4449 80.5439 49.5965 80.5782 48.8692C80.6133 48.142 81.0456 40.3855 81.0456 40.0824V33.4166C81.0456 31.621 81.3514 28.7408 82.1231 25.1073C82.8956 21.4738 83.909 19.8409 84.551 17.8882C85.1931 15.9356 86.7731 11.8502 87.0438 11.0709C87.3137 10.2916 89.7706 6.45026 90.627 5.61703Z" fill="white"/>
<path d="M115.166 51.2931L115.547 51.3111V51.3014L115.166 51.2931ZM115.166 51.2931C115.547 51.3014 115.547 51.3014 115.547 51.3013V51.3011V51.2999V51.2957V51.2788L115.548 51.2129L115.554 50.9623C115.558 50.7459 115.564 50.4359 115.571 50.0609C115.584 49.3109 115.6 48.3008 115.611 47.2607C115.621 46.221 115.626 45.1496 115.619 44.2775C115.615 43.8417 115.607 43.4535 115.596 43.1428C115.584 42.8412 115.568 42.5888 115.541 42.4397C115.458 41.978 115.246 40.2327 115.052 38.5827C114.956 37.7622 114.864 36.9713 114.797 36.3854C114.764 36.0926 114.736 35.851 114.717 35.6827L114.695 35.4878L114.69 35.4367L114.688 35.4286V35.4235L114.686 35.3809L114.675 35.2185C114.666 35.0782 114.652 34.877 114.636 34.6325C114.601 34.1439 114.553 33.482 114.494 32.7904C114.435 32.0994 114.367 31.3756 114.293 30.7641C114.221 30.1679 114.139 29.6365 114.048 29.3585C113.93 29.0051 113.766 28.4108 113.575 27.7186C113.519 27.5121 113.459 27.297 113.397 27.077C113.134 26.1308 112.838 25.1024 112.564 24.3485C112.292 23.6015 111.483 21.5864 110.68 19.6418C109.88 17.7052 109.071 15.7996 108.804 15.2883C108.66 15.0118 108.175 14.3167 107.56 13.4658C106.936 12.6006 106.152 11.5407 105.385 10.5127C104.618 9.48452 103.867 8.48725 103.308 7.7471C103.029 7.37699 102.797 7.07112 102.636 6.85776L102.448 6.61061L102.399 6.54568L102.386 6.52904L102.383 6.52482L102.382 6.52376L102.382 6.52349C102.382 6.52343 102.382 6.52339 102.078 6.75325L102.382 6.52339V6.52306C102.113 6.17067 101.767 5.76923 101.392 5.33802C101.349 5.28892 101.306 5.23939 101.262 5.18942C100.921 4.7972 100.556 4.37837 100.192 3.93621C100.136 3.86872 100.076 3.79605 100.015 3.71932C99.6266 3.24163 99.1119 2.60645 98.4812 2.08535C97.7431 1.47525 96.8037 0.983092 95.6614 1.07162C95.0643 1.11787 94.4741 1.39553 93.9334 1.75824C93.3882 2.12383 92.8628 2.59681 92.3893 3.07531C91.915 3.55492 91.4849 4.04887 91.1342 4.46023C91.0617 4.54474 90.9938 4.62476 90.9298 4.6999C90.6743 5.00131 90.4845 5.22432 90.3609 5.34461C90.1207 5.57836 89.7898 5.99926 89.4352 6.48813C89.0753 6.9842 88.6757 7.57245 88.296 8.15729C87.9155 8.74212 87.5533 9.32665 87.2681 9.81577C86.9897 10.2918 86.7656 10.7104 86.6832 10.9465C86.6001 11.1861 86.3744 11.787 86.0861 12.5556C85.4875 14.1484 84.619 16.4611 84.1889 17.7696C83.9868 18.3846 83.7512 18.9557 83.4935 19.5829C83.3463 19.9407 83.1908 20.317 83.0306 20.7299C82.5945 21.8513 82.1415 23.1877 81.7503 25.0283C80.9748 28.6779 80.6645 31.5859 80.6645 33.4166V40.0824V40.0823C80.6645 40.0823 80.6645 40.0831 80.6645 40.0848V40.0925L80.6637 40.1191C80.6629 40.1412 80.6614 40.1704 80.6599 40.2067C80.6568 40.2792 80.6523 40.3776 80.6462 40.4986C80.6347 40.7404 80.6179 41.0706 80.5974 41.461C80.5562 42.2418 80.5013 43.2622 80.4448 44.2962C80.4105 44.9263 80.3755 45.5618 80.3434 46.1511C80.2702 47.4941 80.21 48.5971 80.1978 48.851C80.1612 49.6144 80.3549 52.492 80.6706 54.3121C80.7216 54.6094 80.7628 54.887 80.8009 55.1485C80.8734 55.6391 80.9374 56.0728 81.0473 56.4732C81.2249 57.125 81.5254 57.724 82.1499 58.5002C83.3768 60.0247 85.0796 61.298 86.3774 61.7287C87.5853 62.1293 91.6992 63.4238 92.4762 63.6291C92.8789 63.7355 94.317 64.0036 95.7231 64.2423C96.4308 64.3625 97.1384 64.4767 97.7149 64.5609C98.2769 64.643 98.7497 64.7023 98.9624 64.7023C99.1225 64.7023 99.4764 64.7153 99.9476 64.7326C100.522 64.7538 101.269 64.7813 102.051 64.7994C102.752 64.8156 103.473 64.8239 104.094 64.8116C104.704 64.7995 105.251 64.7673 105.588 64.6934C106.217 64.555 107.35 64.1258 108.423 63.6674C109.498 63.2079 110.572 62.6944 111.085 62.3709C111.608 62.0403 112.344 61.3909 113.017 60.6716C113.687 59.9543 114.336 59.124 114.656 58.419C114.828 58.0404 114.961 57.3923 115.068 56.6834C115.177 55.9584 115.267 55.1191 115.337 54.3255C115.408 53.531 115.461 52.7778 115.495 52.2235C115.513 51.9462 115.525 51.7185 115.534 51.5599C115.538 51.4806 115.541 51.4186 115.543 51.3763L115.545 51.328L115.546 51.3155V51.3123V51.3115V51.3112C115.546 51.3112 115.546 51.3111 115.166 51.2931Z" stroke="#909090" stroke-opacity="0.25"/>
<path d="M59.7315 16.0457C60.5737 14.4882 62.451 12.0511 64.1941 11.3378C65.9372 10.6245 70.3336 16.4595 71.2142 17.6761C72.0949 18.8926 74.0694 22.1357 74.7273 23.3002C75.3851 24.4647 77.2097 28.8623 77.71 30.4435C78.2102 32.0247 78.7836 35.5444 79.0688 37.7484C79.3548 39.9524 79.9099 44.5989 80.1958 45.8614C80.4818 47.1238 81.3557 54.2006 81.3557 54.2006C81.3557 54.2006 82.0183 59.8131 81.1376 62.6737C80.2568 65.5343 78.3261 67.961 78.3261 67.961C78.3261 67.961 75.2877 72.3056 73.5282 73.2014C71.7687 74.0973 67.1297 73.6866 65.2349 72.8717C63.3546 72.063 59.7621 68.7694 58.6409 67.7416L58.6155 67.7182C57.5243 66.7179 52.8924 63.3217 51.9061 61.7029C50.92 60.084 51.3533 55.6332 51.3117 53.8911C51.27 52.1489 52.9028 39.7403 52.985 38.5533C53.0671 37.3663 53.556 31.2081 53.821 29.8346C54.086 28.461 54.9919 25.5857 56.3583 22.5908C57.776 19.483 58.8892 17.6032 59.7315 16.0457Z" fill="white" stroke="#909090" stroke-opacity="0.25"/>
<path d="M170.42 16.0457C169.578 14.4882 167.701 12.0511 165.958 11.3378C164.214 10.6245 159.818 16.4595 158.938 17.6761C158.057 18.8926 156.082 22.1357 155.425 23.3002C154.767 24.4647 152.942 28.8623 152.442 30.4435C151.941 32.0247 151.369 35.5444 151.083 37.7484C150.797 39.9524 150.242 44.5989 149.956 45.8614C149.67 47.1238 148.796 54.2006 148.796 54.2006C148.796 54.2006 148.133 59.8131 149.014 62.6737C149.895 65.5343 151.826 67.961 151.826 67.961C151.826 67.961 154.864 72.3056 156.623 73.2014C158.383 74.0973 163.022 73.6866 164.917 72.8717C166.797 72.063 170.389 68.7694 171.51 67.7416L171.536 67.7182C172.628 66.7179 177.259 63.3217 178.245 61.7029C179.232 60.084 178.798 55.6332 178.84 53.8911C178.882 52.1489 177.249 39.7403 177.167 38.5533C177.085 37.3663 176.596 31.2081 176.33 29.8346C176.066 28.461 175.16 25.5857 173.793 22.5908C172.376 19.483 171.263 17.6032 170.42 16.0457Z" fill="white" stroke="#909090" stroke-opacity="0.25"/>
<path d="M28.2885 24.7369C28.4563 24.2548 30.8911 17.0794 32.055 16.6652C33.2189 16.251 33.9387 17.6394 33.9387 17.6394L38.3103 23.6813C38.3103 23.6813 45.4184 37.422 46.1546 39.2828C46.8909 41.1437 50.4275 51.0805 50.7964 52.1556C51.1652 53.2306 51.7377 57.3543 51.8074 59.5185C51.8771 61.6825 52.4508 74.1931 52.4508 74.1931V86.86C52.4508 86.86 53.7648 96.3655 53.999 97.6725C54.2332 98.9796 56.1124 106.542 55.1774 106.839C54.2424 107.136 48.177 100.626 47.1199 99.3303C46.0629 98.0347 38.631 90.0721 37.9837 89.1013C37.3364 88.1313 32.4874 80.934 31.4977 78.5246C30.508 76.1159 24.5701 51.3315 24.4526 49.9261C24.3351 48.5208 24.4526 42.8286 24.4526 42.8286C24.4526 42.8286 25.1345 34.7927 25.29 33.8523C25.4454 32.912 28.1207 25.2189 28.2885 24.7369Z" fill="white" stroke="#909090" stroke-opacity="0.25" stroke-linejoin="round"/>
<path d="M202.958 24.7369C202.791 24.2548 200.356 17.0794 199.191 16.6652C198.028 16.251 197.308 17.6394 197.308 17.6394L192.936 23.6813C192.936 23.6813 185.829 37.422 185.092 39.2828C184.356 41.1437 180.819 51.0805 180.45 52.1556C180.081 53.2306 179.509 57.3543 179.439 59.5185C179.37 61.6825 178.796 74.1931 178.796 74.1931V86.86C178.796 86.86 177.482 96.3655 177.248 97.6725C177.014 98.9796 175.135 106.542 176.07 106.839C177.004 107.136 183.07 100.626 184.127 99.3303C185.184 98.0347 192.616 90.0721 193.263 89.1013C193.91 88.1313 198.759 80.934 199.749 78.5246C200.739 76.1159 206.676 51.3315 206.794 49.9261C206.911 48.5208 206.794 42.8286 206.794 42.8286C206.794 42.8286 206.112 34.7927 205.957 33.8523C205.801 32.912 203.126 25.2189 202.958 24.7369Z" fill="white" stroke="#909090" stroke-opacity="0.25" stroke-linejoin="round"/>
<path d="M15.4013 52.4264C15.4566 51.3089 16.8787 46.7916 18.362 46.6146C19.8453 46.4375 20.1495 47.4697 21.0725 48.0196C21.9956 48.5695 22.3361 48.7587 23.0891 49.5524C23.842 50.3461 24.5997 50.617 25.2317 51.66C25.8638 52.703 27.6669 58.4501 28.1456 59.5829C28.6244 60.7157 29.6798 65.4819 29.7589 66.2335C29.838 66.9852 30.2751 71.3732 30.193 72.5261C30.1109 73.679 30.2677 73.7459 30.032 74.6975C29.7964 75.6492 29.3961 76.7671 28.917 77.4746C28.4378 78.1814 27.6118 79.5296 27.1954 80.3954C26.7789 81.2612 24.5792 83.9811 23.9087 84.4581C23.2382 84.9351 21.5695 85.3688 20.3793 85.0622C19.1891 84.7556 18.5824 84.6574 18.0476 83.5931C17.5129 82.5287 16.49 71.5092 16.4688 70.0006C16.4475 68.4919 16.4087 67.6262 16.0941 66.7963C15.7794 65.9665 15.4628 63.6703 15.4013 62.5173C15.3398 61.3642 15.3459 53.5438 15.4013 52.4264Z" fill="white" stroke="#919191" stroke-opacity="0.25" stroke-linejoin="round"/>
<path d="M215.515 52.4264C215.459 51.3089 214.038 46.7916 212.554 46.6146C211.071 46.4375 210.766 47.4697 209.844 48.0196C208.92 48.5695 208.58 48.7587 207.827 49.5524C207.074 50.3461 206.316 50.617 205.684 51.66C205.052 52.703 203.249 58.4501 202.77 59.5829C202.292 60.7157 201.236 65.4819 201.157 66.2335C201.078 66.9852 200.641 71.3732 200.723 72.5261C200.805 73.679 200.648 73.7459 200.884 74.6975C201.12 75.6492 201.52 76.7671 201.999 77.4746C202.478 78.1814 203.304 79.5296 203.721 80.3954C204.137 81.2612 206.337 83.9811 207.007 84.4581C207.678 84.9351 209.347 85.3688 210.537 85.0622C211.727 84.7556 212.333 84.6574 212.869 83.5931C213.403 82.5287 214.426 71.5092 214.447 70.0006C214.469 68.4919 214.507 67.6262 214.822 66.7963C215.137 65.9665 215.453 63.6703 215.515 62.5173C215.577 61.3642 215.57 53.5438 215.515 52.4264Z" fill="white" stroke="#919191" stroke-opacity="0.25" stroke-linejoin="round"/>
<path d="M2.38312 68.4159C2.72515 67.7077 4.70943 65.9858 4.92586 65.8349C5.14228 65.684 7.82727 65.9652 7.97711 66.1217C8.12703 66.2782 9.86258 69.5154 9.91039 69.6852C9.95827 69.855 12.0087 75.3264 12.1595 75.6827C12.3103 76.039 13.7892 81.78 13.7892 81.78C13.7892 81.78 15.31 86.8242 15.3528 87.2472C15.3955 87.671 15.0868 90.4038 14.9859 90.6161C14.8851 90.8283 14.3746 91.7961 14.0854 91.8881C13.7962 91.9802 13.1391 91.6789 12.7357 91.2764C12.3322 90.874 12.0543 89.9192 11.8638 89.3919C11.6733 88.8647 10.6466 88.1199 9.91039 88.0141C9.17423 87.9091 7.12433 87.0228 6.87125 86.7261C6.61817 86.4293 1.30653 77.0927 1.10102 76.4018C0.895518 75.7108 0.84272 73.3921 0.945701 72.1221C1.04868 70.8521 2.04109 69.1242 2.38312 68.4159Z" fill="white" stroke="white"/>
<path d="M223.087 67.9725C222.619 67.3397 220.35 66.014 220.109 65.9057C219.868 65.7974 217.282 66.5696 217.164 66.7511C217.045 66.9326 215.94 70.4344 215.925 70.61C215.91 70.7858 214.91 76.5414 214.828 76.9193C214.745 77.2974 214.357 83.2127 214.357 83.2127C214.357 83.2127 213.799 88.45 213.836 88.8738C213.872 89.2976 214.682 91.9269 214.821 92.1164C214.96 92.3066 215.641 93.1632 215.942 93.2005C216.243 93.2378 216.833 92.8201 217.155 92.3499C217.477 91.8798 217.572 90.89 217.662 90.3368C217.751 89.7837 218.622 88.8616 219.326 88.6228C220.03 88.3831 221.88 87.1339 222.073 86.7953C222.267 86.4567 225.755 76.3006 225.828 75.5836C225.902 74.8665 225.524 72.5781 225.187 71.3491C224.85 70.1201 223.554 68.6053 223.087 67.9725Z" fill="white" stroke="#909090" stroke-opacity="0.25"/>
</g>
<defs>
<clipPath id="clip0_42_858">
<rect width="228" height="264" fill="white" transform="translate(0 0.5)"/>
</clipPath>
</defs>
</svg>
